<svg xmlns="http://www.w3.org/2000/svg" viewBox="0 0 100 100">
  <defs>
    <linearGradient id="a16bg" x1="0%" y1="0%" x2="100%" y2="100%">
      <stop offset="0%" stop-color="#831843"/>
      <stop offset="100%" stop-color="#5C0F2E"/>
    </linearGradient>
    <clipPath id="a16clip">
      <circle cx="50" cy="50" r="50"/>
    </clipPath>
  </defs>
  <circle cx="50" cy="50" r="50" fill="url(#a16bg)"/>
  <!-- Starfield: small twinkling stars at fixed positions with varied rhythms -->
  <g clip-path="url(#a16clip)">
    <polygon points="22,22 22.6,24 24.6,24 23,25.2 23.6,27.2 22,26 20.4,27.2 21,25.2 19.4,24 21.4,24" fill="white">
      <animate attributeName="opacity" values="0.15;0.45;0.15;0.2;0.15" keyTimes="0;0.3;0.5;0.8;1" dur="3.2s" repeatCount="indefinite"/>
    </polygon>
    <polygon points="75,18 75.5,19.7 77.2,19.7 75.85,20.75 76.35,22.45 75,21.4 73.65,22.45 74.15,20.75 72.8,19.7 74.5,19.7" fill="white">
      <animate attributeName="opacity" values="0.2;0.15;0.4;0.15;0.2" keyTimes="0;0.25;0.55;0.85;1" dur="4.3s" repeatCount="indefinite"/>
    </polygon>
    <circle cx="38" cy="72" r="0.7" fill="white">
      <animate attributeName="opacity" values="0.15;0.3;0.15;0.45;0.15" keyTimes="0;0.2;0.5;0.75;1" dur="2.6s" repeatCount="indefinite"/>
    </circle>
    <polygon points="82,62 82.5,63.5 84,63.5 82.75,64.4 83.25,65.9 82,65 80.75,65.9 81.25,64.4 80,63.5 81.5,63.5" fill="white">
      <animate attributeName="opacity" values="0.15;0.4;0.15;0.25;0.15" keyTimes="0;0.35;0.6;0.9;1" dur="3.8s" repeatCount="indefinite"/>
    </polygon>
    <circle cx="18" cy="48" r="0.6" fill="white">
      <animate attributeName="opacity" values="0.2;0.15;0.45;0.2;0.2" keyTimes="0;0.3;0.55;0.8;1" dur="4.8s" repeatCount="indefinite"/>
    </circle>
    <polygon points="60,82 60.5,83.3 61.8,83.3 60.75,84.1 61.15,85.4 60,84.6 58.85,85.4 59.25,84.1 58.2,83.3 59.5,83.3" fill="white">
      <animate attributeName="opacity" values="0.15;0.3;0.15;0.4;0.15" keyTimes="0;0.15;0.5;0.85;1" dur="2.2s" repeatCount="indefinite"/>
    </polygon>
    <circle cx="88" cy="35" r="0.8" fill="white">
      <animate attributeName="opacity" values="0.15;0.45;0.15;0.2;0.15" keyTimes="0;0.4;0.65;0.9;1" dur="3.5s" repeatCount="indefinite"/>
    </circle>
    <polygon points="32,30 32.5,31.3 33.8,31.3 32.75,32.1 33.15,33.4 32,32.6 30.85,33.4 31.25,32.1 30.2,31.3 31.5,31.3" fill="white">
      <animate attributeName="opacity" values="0.2;0.15;0.35;0.15;0.2" keyTimes="0;0.25;0.55;0.8;1" dur="4.1s" repeatCount="indefinite"/>
    </polygon>
    <circle cx="68" cy="42" r="0.55" fill="white">
      <animate attributeName="opacity" values="0.15;0.3;0.15;0.4;0.15" keyTimes="0;0.3;0.5;0.75;1" dur="2.9s" repeatCount="indefinite"/>
    </circle>
  </g>
  <!-- Bright wide eyes -->
  <ellipse cx="38" cy="43" rx="6" ry="5.5" fill="white" opacity="0.9">
    <animate attributeName="ry" values="5.5;5.5;0.5;5.5;5.5" keyTimes="0;0.86;0.9;0.94;1" dur="4s" repeatCount="indefinite"/>
  </ellipse>
  <ellipse cx="62" cy="43" rx="6" ry="5.5" fill="white" opacity="0.9">
    <animate attributeName="ry" values="5.5;5.5;0.5;5.5;5.5" keyTimes="0;0.86;0.9;0.94;1" dur="4s" repeatCount="indefinite"/>
  </ellipse>
  <!-- Excited wide grin -->
  <path d="M36,57 Q50,70 64,57" stroke="white" stroke-width="2.2" fill="none" stroke-linecap="round" opacity="0.85"/>
</svg>
