<svg xmlns="http://www.w3.org/2000/svg" viewBox="0 0 100 100">
  <defs>
    <linearGradient id="a13bg" x1="0%" y1="0%" x2="100%" y2="100%">
      <stop offset="0%" stop-color="#D4A51A"/>
      <stop offset="100%" stop-color="#A88315"/>
    </linearGradient>
    <clipPath id="a13clip"><circle cx="50" cy="50" r="50"/></clipPath>
  </defs>
  <circle cx="50" cy="50" r="50" fill="url(#a13bg)"/>
  <g clip-path="url(#a13clip)">
    <g>
      <!-- Gentle breathing bob -->
      <animateTransform attributeName="transform" type="translate" values="0 0; 0 -0.8; 0 0" dur="5.00s" repeatCount="indefinite"/>
      <svg x="2" y="4" width="96" height="96" viewBox="0 0 704 704"><metadata xmlns:rdf="http://www.w3.org/1999/02/22-rdf-syntax-ns#" xmlns:xsi="http://www.w3.org/2001/XMLSchema-instance" xmlns:dc="http://purl.org/dc/elements/1.1/" xmlns:dcterms="http://purl.org/dc/terms/"><rdf:RDF><rdf:Description><dc:title>Open Peeps</dc:title><dc:creator>Pablo Stanley</dc:creator><dc:source xsi:type="dcterms:URI">https://www.openpeeps.com/</dc:source><dcterms:license xsi:type="dcterms:URI">https://creativecommons.org/publicdomain/zero/1.0/</dcterms:license><dc:rights>Remix of „Open Peeps” (https://www.openpeeps.com/) by „Pablo Stanley”, licensed under „CC0 1.0” (https://creativecommons.org/publicdomain/zero/1.0/)</dc:rights></rdf:Description></rdf:RDF></metadata><mask id="a13oviewboxMask"><rect width="704" height="704" rx="0" ry="0" x="0" y="0" fill="#fff" /></mask><g mask="url(#a13oviewboxMask)"><g fill-rule="evenodd" clip-rule="evenodd"><path d="M705.3 1074a2351.1 2351.1 0 0 1-15.6-101c-1-7.7-2.5-16.4 2.7-22 7.3-8 14-14.8 14.8-26.2.8-10.7-2.8-22.4-5-32.8a809.4 809.4 0 0 0-17.3-64.7c-6.6-21.7-13.9-43.2-21.3-64.6-6.9-20-13.5-40.3-22.5-59.5-17-36.5-46-63.5-81.6-81.6-9-4.5-27-20.5-36.3-24-8.5-3.4-8.5 6.3-16.9 2.6-6.7-2.9-13-6.7-16.7-13.2-4-7-14.3-16.9-15.9-25-3.3-17.4.3-32.2-12-45.3a90 90 0 0 0-41.1-23.8c-33.7-9.3-78.5-2.8-98.8 28.5-9.7 14.9-13 33-26.2 45.1-11.4 10.7-8.8 18-23.6 23.4-.9.3-23.6-4.5-24.4-4.2-16.2-3.5-31.7 6.2-46.5 11.8a325.4 325.4 0 0 0-63 32.3 399.2 399.2 0 0 0-102.3 98.5 482.5 482.5 0 0 0-76.4 161c-1.7 6.4-3.5 13-1.5 19.4 1.7 5.3 5.4 9.2 9.8 12.4 6 4.3 18 7 17.7 15.7-.1 6.6-2.4 13.5-3.5 20-1.3 7.7-2.3 15.5-3.4 23.2-4.8 35.4-8.6 71-10.3 106.6a920 920 0 0 0-.5 106c.1 2.3.8 4.5 2 6.2-1 .4-1.2 2.4.1 2.7l2.7.5a12 12 0 0 0 7 2.4l5.5.2c19.3 4 38.6 7.9 58.1 10.8 23.8 3.5 47.6 6.3 71.5 8.7 49.2 4.8 98 3.2 147.1.6a1877 1877 0 0 1 147.4-2c49.2 1.4 98.4 3.5 147.6 4.4 55 1 110-.5 164.8-5 7.5-.5 12.2-6.5 10.7-14-8.9-44.7-19-89.1-27-134Z" fill="#d08b5b"/><path d="m201 597.5 1.2-.4c14.5-5.7 29.6-14.8 45.4-11.4.5-.2 10.8 1.9 17.9 3.2l-6.7 7L247 598c40.7 67.1 88.8 100.7 144.3 100.7 55.5 0 97.7-33.6 126.4-100.7l4-1c.4 0 1 .2 1.5.4 9.3 3.6 27.4 19.6 36.3 24.1 35.6 18 64.5 45 81.6 81.6 8.7 18.6 15.2 38 21.8 57.5l.7 2c7.4 21.4 14.7 43 21.3 64.6 6.3 20.4 12 41 16.6 61.8l.7 2.9c2.2 10.4 5.8 22 5 32.8a29 29 0 0 1-3 10.7l-80.4 29 38.4 261.3c-35.1 1.5-70.3 2-105.5 1.3-49.2-.9-98.4-3-147.6-4.3-47.7-1.2-95.3-.7-143 1.7l-12 .6a946.3 946.3 0 0 1-139.5-1l-3.1-.3v-38.3l16.3-212.9-83-15.6-81.3-39.5a21.7 21.7 0 0 1-5.6-8.8c-1.9-6-.5-12 1-18l.5-1.3a492.8 492.8 0 0 1 76.4-161A399.3 399.3 0 0 1 138 629.7c19.8-13 40.9-23.9 63-32.3Z" fill="#e279c7"/><path d="M232.2 584.6c5.1-.3 10.3.6 15.4 1 .4.1.6.8 0 .9-9 1.9-18 4.5-26.9 7.1l-3.8 1.2c-10 3-19.8 6-29.6 10-19.4 7.9-37.8 18.5-54.8 30.8C67.2 682.8 20 754.3-9.9 828.3a526 526 0 0 0-24.3 77c-.4 1.6-2 5.4-1 7 .7 1.3 3.6 2.1 5 2.9l4.5 2.3 25.2 12.9 2.3 1.1c38 18.6 78.4 34.4 121 35.5l.4-3.7a342 342 0 0 1 9.9-60c.3-1 1.6-.6 1.7.3 3 23.1 2 46.4 1 69.7-1.8 41-4.3 82.2-6.5 123.3-1.2 20.6-2.6 41-3.9 61.7-1.3 20.5-1.7 41.6-4.7 62-.6 4.6-6 7-10 6.6-4.4-.5-7.9-4.5-8-9 0-11.9 1.5-24 2.4-35.8l2.5-33.8c3.1-41.1 6.8-82.2 10.2-123.3a4771 4771 0 0 1 3.8-43.7C76.4 979.8 34.2 963-6.1 943.5c-.6 13.2-2 26.5-3.4 39.6-3.8 36.8-7.1 73.6-9.6 110.5a2254.2 2254.2 0 0 0-4.2 92.7l-.2 7c0 4.4-.5 8.5-4.3 11.7-3.7 3.3-8.9 3.5-12.6 0-5-4.6-4.2-10.9-4-17.1a1675.6 1675.6 0 0 1 1.8-47.2 1321 1321 0 0 1 10.5-109.5l2-14c3.5-26 7.5-52.7 15.5-77.9-3.1-1.5-6.2-3-9.3-4.7-5.5-2.7-11.2-5.4-16.6-8.4-4.2-2.5-7.9-5.8-9-10.8-1.4-5.5.6-11.5 2-16.9v-.4a502 502 0 0 1 26.6-80 523.2 523.2 0 0 1 67.8-117 353.8 353.8 0 0 1 88.7-83.3 239 239 0 0 1 53.8-25.7 142.6 142.6 0 0 1 42.8-7.5Zm90.1-66c6-6.5 18.1.2 15.2 8.8a108.2 108.2 0 0 1-34.7 52A79.4 79.4 0 0 1 247 598l1.7 2.4a321.1 321.1 0 0 0 46.1 52.6c36 31.2 84.8 48 132 36 37.1-9.4 69.8-38.8 79.4-76.2-1.3.6-3 .9-4.8.5-7.7-1.7-15.3-9.8-20.3-15.6-5.3-6.3-9.5-13-12.6-20.7-5.6-14-7.4-32.1.3-45.7 1-1.7 3-.7 3.3 1l.3 2.5c1.5 12.7 3.3 25 9.3 36.6a76 76 0 0 0 18.2 23.1c2.6 2 5.8 3.6 8.1 6l.5.4c.6-5 4.1-7.3 7.6-7.2 3.3.2 7.3 1.6 8.8 2.3l.1.1a341 341 0 0 1 65.1 42 259 259 0 0 1 88.4 129c7.5 25.3 11.8 51.4 16.3 77.4l2.8 16c4.2 23.9 8.9 48.4 18.4 70.7 2.5 5.7.6 11.1-5.5 13.4A1493 1493 0 0 1 688 953c3.7 16 6 32.5 8.7 48.5 6 34.1 13.2 68 19.4 102 3.2 17.5 6.1 35 9.3 52.3l4.7 25.2 2.4 13.6.1.7c.5 2.4 1 4.9.4 7.3-.8 2.7-2.9 4.6-4.8 6.6-1.6 1.6-3.8 1.6-5.7.7l-.7-.3c-3.4-1.6-6-3.2-7.3-7-.7-2.5-1-5.2-1.5-7.7a3535.6 3535.6 0 0 1-7.8-43.6l-1.6-9.1c-5.2-31.4-10.2-62.9-12.8-94.5-1-14-2.3-28.1-3.5-42.2l-.9-10.5c-1.1-13.3-2.5-27-2.7-40.5l-4.5 1.6L657 964c-5.5 2-12.5 6-18.4 5.2-2.9-.3-5-1.2-6.8-2.9 2 28.8 4.8 57.4 8.5 86a1965.7 1965.7 0 0 0 22 135c.6 3.2 1.4 6.4 1.9 9.6.5 3.7-.5 5.9-2.5 9-1.7 2.4-5 3.7-7.8 2-3.6-2.3-5.5-4.3-6.5-8.4-1-3.7-1.6-7.6-2.3-11.4a1654.2 1654.2 0 0 1-11.4-65.2c-7.8-52-12.7-104.4-15.2-156.8a1388 1388 0 0 1-1.4-77.8c0-13.3.5-26.6 1.4-39.9 1-13.4 3-26.5 4.8-39.8 0-.5.7-.5.7 0 .8 14.9 2.1 29.8 2.8 44.7.6 14.3.9 28.5 1.4 42.8.6 18.7 1.5 37.5 2.7 56.2a9.6 9.6 0 0 1 8.5-3.1c4.7-1 9.7-3.4 14.1-5l16.8-5.5 26.4-8.7a679 679 0 0 1-18-80.8l-2-12.3c-4-24.2-8.5-48.5-15.8-72a229.8 229.8 0 0 0-34.8-68.2 370.2 370.2 0 0 0-52.7-55.3C557 627 539.7 614 523 600c.1.9.2 2 0 3-3.5 25.9-17 50-35.8 67.9-37.7 36-93.6 43.4-142 26.5-46.7-16.3-88-55-102.6-102.8-.3-.8.8-1 1.3-.5l2.4 3.3c0-.4.2-.9.7-1a129 129 0 0 0 46.6-29.2 100.2 100.2 0 0 0 21.3-33.3l.4-1c1.7-5 3.2-10.2 7-14.2Z" fill="#000"/></g><g transform="matrix(.99789 0 0 1 156 62)"><g fill-rule="evenodd" clip-rule="evenodd"><path d="M431.6 424.8c-4-5.8-13.5-48.4-19.6-55 .5-25 7.4-112-12.4-151.2 4.2-4.2 15.3-40.5 12.4-54.3 9.4-28.8-50.7-74.5-73.5-86.8C232.2 20.5 78.3 83.4 30 188.9 1 252.5.4 323.6-2.8 392c-.4 14.7-1.8 29.5-1.8 44 2.1 13 12.3 26 4.6 36.7-8.5 5.9-25.8 20.3-18 28.4 4.4 3.8 11.6 1.6 16.5 5.2 2.5 1.4 4 4.4 7 4.9 26.5-1 45.2-1.1 71.8-2.2 11.7-.4 29.4 4.6 42.8-5.3 46.8 26 27.2-11.7 36.7-38.5 28.7 9.7 86 40.7 116.7 41.7 25 3.1 48.3-11.4 72.8-8 30.4 11.2 66.1 13.7 94-5.4 7-5 14.7.8 23.5-4.6 17-8.2-23.6-55-32.2-64Z" fill="#d08b5b"/><path d="M30 189C78.3 83.3 232.2 20.4 338.5 77.4c22.8 12.3 82.9 58 73.5 86.8 2.2 10.4-3.7 33.7-8.4 46.3-22.2 16.4-86.8 13-194-10.2l-4.1-.9-36.7 21.7-15 56.5c-10 10-18.2 22.2-24.5 36.6 0 0-15-16.6-37.5-14.5A95.6 95.6 0 0 0 59.5 320c-6.7 7.2-6.8 23.3-.4 48.3l.4 1.5 32.3 10h15l41 50.2 6 51.7c-1.3 22.6 3.8 42.7-33.7 21.8-13.4 9.9-31.1 5-42.8 5.3-26.6 1-45.3 1.2-71.9 2.2-2.9-.5-4.4-3.5-7-5-4.8-3.5-12-1.3-16.5-5-7.7-8.2 9.6-22.6 18.1-28.5 7.7-10.7-2.5-23.8-4.6-36.6 0-14.6 1.4-29.4 1.8-44l.3-6.2C.5 319.3 1.9 250.6 30 189Zm373 204.5 9.4-35.4-.2 5.3-.2 6.5c6.1 6.5 15.7 49 19.6 55l.9.9c10.1 10.9 47.8 55 31.3 63-8.8 5.4-16.5-.4-23.5 4.6-27.9 19.1-63.6 16.6-94 5.3-3.6-.5-7.1-.6-10.6-.4l-1.5-4.6 33.3-28.6 35.6-71.6Z" fill="#b58143"/><path d="M396.8 215.3c-.4-2.2 2.6-3.8 3.8-1.6 8.4 16 11.8 34.5 14.7 52.2 3 17.8 5 35.7 5.1 53.8.1 14-1.1 28-3.5 42l.3 1 1.6 5.4.8 2.8 4.7 15.7c3.4 10.9 7 21.8 11.4 32.4 4.3 10.3 9.5 20.2 15.7 29.5 6 9 15.4 16.5 19.6 26.4 1.5 3.5-.7 8-4.7 7.5-.3.3-.7.6-1.3.6-3 .3-6 0-9.2-.3a1.4 1.4 0 0 1 0-2.7c1.4 0 2.7-.2 4-.3-9-5.3-15.4-15.7-20.5-24.1a176 176 0 0 1-15.6-35 274.8 274.8 0 0 1-10.2-42.2 294 294 0 0 1-11.4 37.2l-.6 1.6C390.9 444.5 376.7 472 353 490l-3.3 2.3 1.3.8c1.4.7 2.7 1.5 4 2 4.8 2.3 10 4 15 5.2 10.7 2.5 21.8 1.8 32.6 2.1 3.6.2 5.6 5.5 2 7.2a49.4 49.4 0 0 1-37.2.5 66.7 66.7 0 0 1-24-13.9c-23.7 13.3-53.1 14.7-79.4 10-13.7-2.4-27-7-38.7-14.6a68.2 68.2 0 0 1-25-29c-.4-1 1-2.3 1.9-1.3 17.9 21.8 48.8 31 76 32.6 14.4 1 29.3.2 43.2-4.1a78.8 78.8 0 0 0 34-21.7c19.2-20.4 30.8-48 39-74.4 9-28.6 13.3-58.7 14.2-88.7.4-15.2-.2-30.5-2.5-45.5-2.4-15-6.8-29.4-9.4-44.2Zm-269-129c1.2-.7 2.1 1 1 1.8a286.7 286.7 0 0 0-58.6 62c-29.9 42.5-49 91.6-58 142.7a486.9 486.9 0 0 0-6 91.4c.2 12 1 24.2 1.7 36.3l.9 13.4c.4 6.3.7 12.5.5 18.8l-.1 1.4c-.4 7.3.3 14.7-1.5 21.8-1 3.7-6.1 4.3-8 1l-1-1.8a89.3 89.3 0 0 1-16.4 19.2c3-.7 6-1 9.2-.7 5 .6 9.3 2.5 12.5 5.8 3-1.4 6.3-2.3 10-2.3 2.7 0 4.7 3.1 3.2 5.5-3.1 4.8-7.4 7.4-12.3 10a6.2 6.2 0 0 1-9-3.3v-.3c-1.4-4.6-9-3.9-12.7-3.2l-1 .3c-6.8 1.4-13.4 3.2-20.2 1.3-4.4-1.2-5.6-7.8-1.3-10 13.4-7 24.7-16.4 36.4-25.8-2.6-6.3-4-13.3-5.7-19.7-2.4-9-3-18.7-4-28a522 522 0 0 1-2-53c.6-59.6 10.8-119.4 36.8-173.4a270.8 270.8 0 0 1 44.1-65 212.9 212.9 0 0 1 61.5-46.2Zm-20.9 292c-.7-1 .7-2.2 1.6-1.6a120.3 120.3 0 0 1 43.9 56.3c9 22.2 14.6 49.4 5.7 72.6-1.4 3.7-8.3 5-9 0-3-22.6-3.6-45.2-10.4-67.2a211.8 211.8 0 0 0-31.8-60.1ZM91 451.7c.1-.4.8-.4.8 0-.5 8-.9 16-1.9 24l-1.7 11.5c-.5 4-.4 8-2.7 11.3-3 4.5-11.1 3.2-10.9-3 .2-4.2 2.2-6.9 4-10.6a102 102 0 0 0 3.2-7.3l1.4-3.7c3-7.4 5.7-14.6 7.8-22.2Zm-36.6-21.2c0-.6 1-.4 1 .2a261.5 261.5 0 0 1-6.8 48.7l-.5 2.1c-1.2 5.3-2 11.5-4.7 16.2-2.7 4.8-9 1.3-8.2-3.4 1-5.6 4.4-11.2 6.4-16.5a357 357 0 0 0 12.8-47.2Zm68.3 31.4.2-.3c1-1 2.3-.3 2.8.7 1.8 4.4.9 9.6.7 14.2v1c0 4.8 0 9.2-2.1 13.5-2.6 5.3-9.5 2-10-2.7-.6-5 1.8-10.1 3.4-15 1-3 1.7-6.1 3.2-9-1.3.3-2.5.8-3.7 1-.6.2-.8-.6-.3-.7 2-.7 4.2-1.2 5.8-2.7Zm272.6 15.5c-.6-.7.2-1.6 1-1.2a85.7 85.7 0 0 0 29.6 8.4c4.6.4 4.7 7.8 0 7.3-11.2-1-23-6-30.6-14.5ZM52.6 323.7c8.6-19.3 35.7-36.4 54-18.5.3.4 0 1.1-.6 1-11.3-4.8-25.1 1.2-33 9.7a41.3 41.3 0 0 0-10.7 24.6 35.1 35.1 0 0 0 7.6 25.8c3.2 3.8 7.5 7.3 12.6 7.7 5 .5 9.4-3.1 14.2-4.1 3.7-.7 6.4 1.5 6.8 5.1.8 8-7.2 13.3-14 14.6a29.5 29.5 0 0 1-21.3-4.1c-20.5-13-25-40.8-15.6-61.8Zm192.6-189c3.7-3.6 10 0 8.7 5-3 10.8-9.2 20-16 28.7a258.7 258.7 0 0 1-21.4 23.8 201.8 201.8 0 0 1-24.4 20.4l-2.6 1.9c-6.1 4.3-12.6 8.6-19.5 11.7a184.5 184.5 0 0 1-9.7 41.8 201 201 0 0 1-18 37.2l-1 1.7c-6.8 10.7-14.8 22.7-26.1 28.5l-1 .4c2.5 1.7 4.6 3.8 6 6.9 1.3 3.3-1.6 6.5-4.4 7.6-6 2.3-11.7-1.6-17-5.9l-.6 1.6c-1.2 3.3-1.6 6.8-4.6 9-1.5 1-3.3.1-4.2-1-3-4 .1-9.4 2.7-12.6l1.2-1.3A27 27 0 0 0 90 338c-6.2-3.3-15.4-3.9-19 3.4-.2.6-1.1.3-1.1-.3 0-9 9.2-13.8 17.1-14.5a34 34 0 0 1 16.7 4l1 .4c1.9 1 3.9 1.8 5.8 2.7-.3-.8-.3-1.8.2-2.7 6-11.8 16.3-21.3 23.8-32.2a193.8 193.8 0 0 0 30.2-70.5c-.9.2-1.9-.6-1.8-1.5.1-2.2 1.2-4.2 3.1-5a190 190 0 0 0 3.2-35.3c0-1 1.3-.9 1.4 0 1 10.5 1 21.2.2 31.8 5-4.6 10.3-9 15-13.7 7.3-7.1 14.4-14.4 21.1-22 7-7.7 13.4-15.7 19.4-24.2l3.1-4.4c4.8-6.8 9.7-13.6 15.8-19.4Zm-9.4-76c41.1-2.6 85 2.4 122 21.7a115 115 0 0 1 47.3 46.6c6.7 12 11.7 25.1 13.7 38.7 2 14-.4 26.4-9.3 37.5-3.5 4.4-9.5-.6-8.6-5 5.3-27.6-3.3-54.8-18.6-77.6-22.3-33.1-61.1-47.8-99-54.4a273.8 273.8 0 0 0-56.2-3.9c-14.4.5-29.1 1.9-42.8 6.7-.5.2-.8-.7-.2-1a177 177 0 0 1 51.7-9.4Zm61 62.2c2.1-1.3 4.7 0 5.5 2.2 2.5 7.7-2.9 17.8-6.5 24.5a137 137 0 0 1-14.7 21.2 112.2 112.2 0 0 1-40.6 31.1c-1 .5-2.1-.7-1.2-1.5 12-11.3 23-23.3 32.5-36.8 4.6-6.7 8.5-13.7 12.2-21 3.3-6.4 6.5-15.7 12.8-19.7Zm69.2 9c1.4-4.7 9-3.9 8.8 1.2-.8 13.2-7 26.5-13.8 37.7-7 11.5-15.8 21.7-26 30.6-.4.4-1.1-.2-.7-.7 8.8-9.6 15.8-20.5 21-32.3 5.2-11.8 7.2-24.2 10.7-36.4Zm-38.3-2c1.5-4.2 8.5-3.9 8.1 1-1.2 13.5-9 27.6-16.4 38.7a132.6 132.6 0 0 1-28.8 31c-.4.3-1-.2-.6-.6a123 123 0 0 0 32.6-51.5c2-6.2 3-12.6 5.1-18.7Z" fill="#000"/></g></g><g transform="translate(315 248)"><g fill-rule="evenodd" clip-rule="evenodd"><path d="M79.2 197.8c11-6.6 51.7-1.8 83.8 0 25.5 1.4 43.7-1.4 49.5 2.5 13.1 8.9 6.8 51.7-16 57.6-22.6 5.8-106.6 14-121 0-14.6-14-15.9-48.3 3.7-60.1Z" fill="#fff"/><path d="M93.3 186.5c17.2-2.1 33.8 3.1 50.6 5.8a236.6 236.6 0 0 0 32 3c.2-1.6 1-3 3-4 4-1.7 7.1-2.5 11.4-2.4 4 .2 8 .6 11.9 1.3a37 37 0 0 1 19.4 9.4c12 11.8 10.1 30.9.9 43.8-19.2 26.7-54.1 28-84 27.6h-2.8c-27.3-.5-66.3 3.6-78.7-27.4a43.6 43.6 0 0 1 1.7-35.6c6.6-13 20.6-19.8 34.6-21.5Zm85.2 44.4h-.2c-12.6.5-25.2.8-37.8 1a500.6 500.6 0 0 0 2.3 17.3c.2 1.1.8 2.8.6 3.8v.4a3.8 3.8 0 0 1 2 2.2c9.8 0 20.3-.1 30.2-1.9v-.2c.2-1.3.8-2.1 1.5-2.7.7-4 .6-8.4.9-12.4l.5-7.5Zm-47.6 1.2c-9 .2-18 .3-27.1.2h-4.2c1 4.6 1.9 9.2 2.6 14 .9 4.8-3.4 8-7.2 7.8l1.3.2c11.6 1.6 23.7 1.2 35.5 1.2-.6-3.7-.4-8-.5-11v-.5l-.4-11.9Zm-61.5-.8c.3 2.4 1 4.8 1.8 7 4 9.3 12.8 13.6 22.2 15.5-1.7-.6-3-2-3.3-4.2A128 128 0 0 1 89 232c-6.6 0-13.1-.2-19.6-.8Zm143.2-2c-4.7 1-10 .6-14.6.8l-12.9.5.6 8.8c.3 3.7.3 7.7 1 11.5 8.7-3 16.4-7.7 22.2-15.2 1.4-1.9 2.7-4 3.7-6.4ZM91.4 201.8c-7.8 1.8-15 5.7-19 12.8a27 27 0 0 0-3.2 14c6.5-.7 13.2-1 19.8-1.2l.1-3.6.1-3c.2-5.9.3-13.2 2.2-19Zm40 .7-3.3-.4c-9.5-1-19-2.2-28.4-1.6l-4.2.5c1.7 6 1.5 13.1 2.2 19.1l1 6.9h1.7c10.1-.6 20.3-1 30.5-1.4V218c.2-4.8-.1-10.3.6-15.4Zm47.6-.8a190.6 190.6 0 0 1-41.5 1.4l.5 6.2 1.3 12.4.5 3.6 37.5-1.9h1.7l.5-7c.4-4.6.7-9.2 1.3-13.8l-.4-.1-1.4-.8Zm4.4 1.7 1.2 19.6 8.2-.4 4.2-.2c5.3-.3 12.2-2 17.5-.4.4-4.8-1-9.5-5.3-12.7-7.7-5.7-17.3-3.7-25.8-5.9Zm-28.2-58.3c12.3-7 43-14.2 45 7.9 1 10.1-6.6 18.6-15.5 22.3l-.3.1c-8.3 3.4-23 7.3-30.1 0-6-6.2 2-17.2 9.3-12.2 3.9 2.6 11.9.7 16.1-.6h.3c4.6-1.4 10.7-5.7 8.8-11.3-1.7-5-8.8-6-13.3-6-6.7-.3-13.2 1.2-19.8 1.7-1 0-1.3-1.4-.5-2Zm50.8-35.5c16.7-.8 27 17.4 23.2 32.3-.6 2.6-3.5 5-6.3 4.8h-.7l-1-.2c-2.7-.8-5-3.5-4.8-6.4v-.8c.4-7-.4-15.1-8.7-16.8-7.1-1.5-11 5.3-11.2 11.6 0 1.1-1.2 2-2.2 1.3-5.2-3-6-9.3-4-14.6a17.2 17.2 0 0 1 15.7-11.2Zm-123.6 3.9c12.2-4 25.2 2.4 31.1 13.1 2 .6 4.1 2.2 3.8 4.6-.4 3.5-1 5.7-3.4 8.4-3.8 4.1-11 2-12.5-3.1v-.2c-1.9-6.6-9.1-11-15.7-8.7-7.8 2.7-7.5 10.9-13 15.6-.6.6-1.4.7-2.1.3-5.8-2.8-4.8-11.1-2.7-16 2.7-6.2 8-11.8 14.5-14ZM66 76.7c9.8-10 35.5-19.7 42.2-1.2 1.3 3.5-1.5 8.2-5.1 9-6 1.2-11.4-1.4-17.3-1a26 26 0 0 0-13.8 5c-10.7 8.3-13 22.3-20.5 32.9-.4.5-1 .3-1.1-.3a58.4 58.4 0 0 1 15.6-44.4ZM194 66.8a33 33 0 0 1 20.5 0 39.7 39.7 0 0 1 23 18.6c.8 1.5 1.7 4.4 2.6 6.2 5.1 3 7.3 9.7 2.7 14.5l-.2.3-.6.6a9.9 9.9 0 0 1-9.6 2.5c-7.5-2.2-8.4-8.1-11-14.4a25.8 25.8 0 0 0-8.3-10.6 39.8 39.8 0 0 0-32.6-5.4c-.5.1-1.1-.6-.8-1 2-2.6 3-4.6 5.7-6.6 2.6-2 5.5-3.6 8.6-4.7Z" fill="#000"/></g></g><g transform="translate(279 400)"></g><g transform="translate(179 343)"></g><g transform="translate(203 303)"><path fill-rule="evenodd" clip-rule="evenodd" d="M367.1 98.3c-6.7 9-19.2 12-30.7 11-24.8-2.4-32.6-30.6-33.5-52.6 16.7 4.7-1.4-28.5 55.6-32 20-1.8 14.5 10.3 23.4 19.2-.2 18.6-3.3 38.8-14.8 54.4ZM249 77c-14.7 68.6-95 52.3-103.4-9.6 7.8-5.5 5.7-19 15.4-24 15.3-9.8 34.5-9.4 52-9.1 22.2 1.5 28.5 10.7 40 20.8-.6 6.7-2.2 14.7-4 21.9Zm150-63.8-2.4-.4a39 39 0 0 0-8.3-1.9C359.7 4.7 293.7 13.8 291 38c-9 3-17 .4-27.4.6-8-33.5-146.6-28.8-153.3-8.6-6.5-2-16-1.5-23.3-1.8-15.6-.3-31.3 1-46.6 4.4C11.6 37-27.5 42.5-7.6 78.3c3.5 3.5 9.3.7 9.5-4-6.7-17 8.5-19 20.1-24 29-10.4 58.6-11.8 88.5-8.6 2.3 2.7 5.7 5 9.3 6.2 20 3.3 9.5 18.2 22.2 20.3-2.3 51.9 60.6 80.2 97 46.1 14.6-14.2 18.1-35.3 21.5-54.3a5 5 0 0 0 3.6-2.7c4.3-4.3 7-8.2 15.4-9.4 8.5-1.2 15 1.2 16 1.9l.7 1.3c.4.7 1 1.2 1.5 1.7-8.4 51.6 31.7 84.2 72.2 57.5 17.5-16.6 21.3-41.9 22-64.5a6.8 6.8 0 0 0 3-7.7c-1-4.9 1.6-9 5.8-11.1 5.5-2.8 4.6-12.7-1.8-13.8Z" fill="#000"/></g></g></svg>
      <g opacity="0">
        <!-- Irregular blinks (eyes closed ~0.2s) -->
        <animate attributeName="opacity" calcMode="discrete" values="0;1;0;1;0;1;0;1;0;1;0" keyTimes="0;0.0486;0.0539;0.1660;0.1713;0.3767;0.3820;0.8347;0.8400;0.9567;0.9620" dur="37.42s" repeatCount="indefinite"/>
        <svg x="2" y="4" width="96" height="96" viewBox="0 0 704 704"><metadata xmlns:rdf="http://www.w3.org/1999/02/22-rdf-syntax-ns#" xmlns:xsi="http://www.w3.org/2001/XMLSchema-instance" xmlns:dc="http://purl.org/dc/elements/1.1/" xmlns:dcterms="http://purl.org/dc/terms/"><rdf:RDF><rdf:Description><dc:title>Open Peeps</dc:title><dc:creator>Pablo Stanley</dc:creator><dc:source xsi:type="dcterms:URI">https://www.openpeeps.com/</dc:source><dcterms:license xsi:type="dcterms:URI">https://creativecommons.org/publicdomain/zero/1.0/</dcterms:license><dc:rights>Remix of „Open Peeps” (https://www.openpeeps.com/) by „Pablo Stanley”, licensed under „CC0 1.0” (https://creativecommons.org/publicdomain/zero/1.0/)</dc:rights></rdf:Description></rdf:RDF></metadata><mask id="a13cviewboxMask"><rect width="704" height="704" rx="0" ry="0" x="0" y="0" fill="#fff" /></mask><g mask="url(#a13cviewboxMask)"><g fill-rule="evenodd" clip-rule="evenodd"><path d="M705.3 1074a2351.1 2351.1 0 0 1-15.6-101c-1-7.7-2.5-16.4 2.7-22 7.3-8 14-14.8 14.8-26.2.8-10.7-2.8-22.4-5-32.8a809.4 809.4 0 0 0-17.3-64.7c-6.6-21.7-13.9-43.2-21.3-64.6-6.9-20-13.5-40.3-22.5-59.5-17-36.5-46-63.5-81.6-81.6-9-4.5-27-20.5-36.3-24-8.5-3.4-8.5 6.3-16.9 2.6-6.7-2.9-13-6.7-16.7-13.2-4-7-14.3-16.9-15.9-25-3.3-17.4.3-32.2-12-45.3a90 90 0 0 0-41.1-23.8c-33.7-9.3-78.5-2.8-98.8 28.5-9.7 14.9-13 33-26.2 45.1-11.4 10.7-8.8 18-23.6 23.4-.9.3-23.6-4.5-24.4-4.2-16.2-3.5-31.7 6.2-46.5 11.8a325.4 325.4 0 0 0-63 32.3 399.2 399.2 0 0 0-102.3 98.5 482.5 482.5 0 0 0-76.4 161c-1.7 6.4-3.5 13-1.5 19.4 1.7 5.3 5.4 9.2 9.8 12.4 6 4.3 18 7 17.7 15.7-.1 6.6-2.4 13.5-3.5 20-1.3 7.7-2.3 15.5-3.4 23.2-4.8 35.4-8.6 71-10.3 106.6a920 920 0 0 0-.5 106c.1 2.3.8 4.5 2 6.2-1 .4-1.2 2.4.1 2.7l2.7.5a12 12 0 0 0 7 2.4l5.5.2c19.3 4 38.6 7.9 58.1 10.8 23.8 3.5 47.6 6.3 71.5 8.7 49.2 4.8 98 3.2 147.1.6a1877 1877 0 0 1 147.4-2c49.2 1.4 98.4 3.5 147.6 4.4 55 1 110-.5 164.8-5 7.5-.5 12.2-6.5 10.7-14-8.9-44.7-19-89.1-27-134Z" fill="#d08b5b"/><path d="m201 597.5 1.2-.4c14.5-5.7 29.6-14.8 45.4-11.4.5-.2 10.8 1.9 17.9 3.2l-6.7 7L247 598c40.7 67.1 88.8 100.7 144.3 100.7 55.5 0 97.7-33.6 126.4-100.7l4-1c.4 0 1 .2 1.5.4 9.3 3.6 27.4 19.6 36.3 24.1 35.6 18 64.5 45 81.6 81.6 8.7 18.6 15.2 38 21.8 57.5l.7 2c7.4 21.4 14.7 43 21.3 64.6 6.3 20.4 12 41 16.6 61.8l.7 2.9c2.2 10.4 5.8 22 5 32.8a29 29 0 0 1-3 10.7l-80.4 29 38.4 261.3c-35.1 1.5-70.3 2-105.5 1.3-49.2-.9-98.4-3-147.6-4.3-47.7-1.2-95.3-.7-143 1.7l-12 .6a946.3 946.3 0 0 1-139.5-1l-3.1-.3v-38.3l16.3-212.9-83-15.6-81.3-39.5a21.7 21.7 0 0 1-5.6-8.8c-1.9-6-.5-12 1-18l.5-1.3a492.8 492.8 0 0 1 76.4-161A399.3 399.3 0 0 1 138 629.7c19.8-13 40.9-23.9 63-32.3Z" fill="#e279c7"/><path d="M232.2 584.6c5.1-.3 10.3.6 15.4 1 .4.1.6.8 0 .9-9 1.9-18 4.5-26.9 7.1l-3.8 1.2c-10 3-19.8 6-29.6 10-19.4 7.9-37.8 18.5-54.8 30.8C67.2 682.8 20 754.3-9.9 828.3a526 526 0 0 0-24.3 77c-.4 1.6-2 5.4-1 7 .7 1.3 3.6 2.1 5 2.9l4.5 2.3 25.2 12.9 2.3 1.1c38 18.6 78.4 34.4 121 35.5l.4-3.7a342 342 0 0 1 9.9-60c.3-1 1.6-.6 1.7.3 3 23.1 2 46.4 1 69.7-1.8 41-4.3 82.2-6.5 123.3-1.2 20.6-2.6 41-3.9 61.7-1.3 20.5-1.7 41.6-4.7 62-.6 4.6-6 7-10 6.6-4.4-.5-7.9-4.5-8-9 0-11.9 1.5-24 2.4-35.8l2.5-33.8c3.1-41.1 6.8-82.2 10.2-123.3a4771 4771 0 0 1 3.8-43.7C76.4 979.8 34.2 963-6.1 943.5c-.6 13.2-2 26.5-3.4 39.6-3.8 36.8-7.1 73.6-9.6 110.5a2254.2 2254.2 0 0 0-4.2 92.7l-.2 7c0 4.4-.5 8.5-4.3 11.7-3.7 3.3-8.9 3.5-12.6 0-5-4.6-4.2-10.9-4-17.1a1675.6 1675.6 0 0 1 1.8-47.2 1321 1321 0 0 1 10.5-109.5l2-14c3.5-26 7.5-52.7 15.5-77.9-3.1-1.5-6.2-3-9.3-4.7-5.5-2.7-11.2-5.4-16.6-8.4-4.2-2.5-7.9-5.8-9-10.8-1.4-5.5.6-11.5 2-16.9v-.4a502 502 0 0 1 26.6-80 523.2 523.2 0 0 1 67.8-117 353.8 353.8 0 0 1 88.7-83.3 239 239 0 0 1 53.8-25.7 142.6 142.6 0 0 1 42.8-7.5Zm90.1-66c6-6.5 18.1.2 15.2 8.8a108.2 108.2 0 0 1-34.7 52A79.4 79.4 0 0 1 247 598l1.7 2.4a321.1 321.1 0 0 0 46.1 52.6c36 31.2 84.8 48 132 36 37.1-9.4 69.8-38.8 79.4-76.2-1.3.6-3 .9-4.8.5-7.7-1.7-15.3-9.8-20.3-15.6-5.3-6.3-9.5-13-12.6-20.7-5.6-14-7.4-32.1.3-45.7 1-1.7 3-.7 3.3 1l.3 2.5c1.5 12.7 3.3 25 9.3 36.6a76 76 0 0 0 18.2 23.1c2.6 2 5.8 3.6 8.1 6l.5.4c.6-5 4.1-7.3 7.6-7.2 3.3.2 7.3 1.6 8.8 2.3l.1.1a341 341 0 0 1 65.1 42 259 259 0 0 1 88.4 129c7.5 25.3 11.8 51.4 16.3 77.4l2.8 16c4.2 23.9 8.9 48.4 18.4 70.7 2.5 5.7.6 11.1-5.5 13.4A1493 1493 0 0 1 688 953c3.7 16 6 32.5 8.7 48.5 6 34.1 13.2 68 19.4 102 3.2 17.5 6.1 35 9.3 52.3l4.7 25.2 2.4 13.6.1.7c.5 2.4 1 4.9.4 7.3-.8 2.7-2.9 4.6-4.8 6.6-1.6 1.6-3.8 1.6-5.7.7l-.7-.3c-3.4-1.6-6-3.2-7.3-7-.7-2.5-1-5.2-1.5-7.7a3535.6 3535.6 0 0 1-7.8-43.6l-1.6-9.1c-5.2-31.4-10.2-62.9-12.8-94.5-1-14-2.3-28.1-3.5-42.2l-.9-10.5c-1.1-13.3-2.5-27-2.7-40.5l-4.5 1.6L657 964c-5.5 2-12.5 6-18.4 5.2-2.9-.3-5-1.2-6.8-2.9 2 28.8 4.8 57.4 8.5 86a1965.7 1965.7 0 0 0 22 135c.6 3.2 1.4 6.4 1.9 9.6.5 3.7-.5 5.9-2.5 9-1.7 2.4-5 3.7-7.8 2-3.6-2.3-5.5-4.3-6.5-8.4-1-3.7-1.6-7.6-2.3-11.4a1654.2 1654.2 0 0 1-11.4-65.2c-7.8-52-12.7-104.4-15.2-156.8a1388 1388 0 0 1-1.4-77.8c0-13.3.5-26.6 1.4-39.9 1-13.4 3-26.5 4.8-39.8 0-.5.7-.5.7 0 .8 14.9 2.1 29.8 2.8 44.7.6 14.3.9 28.5 1.4 42.8.6 18.7 1.5 37.5 2.7 56.2a9.6 9.6 0 0 1 8.5-3.1c4.7-1 9.7-3.4 14.1-5l16.8-5.5 26.4-8.7a679 679 0 0 1-18-80.8l-2-12.3c-4-24.2-8.5-48.5-15.8-72a229.8 229.8 0 0 0-34.8-68.2 370.2 370.2 0 0 0-52.7-55.3C557 627 539.7 614 523 600c.1.9.2 2 0 3-3.5 25.9-17 50-35.8 67.9-37.7 36-93.6 43.4-142 26.5-46.7-16.3-88-55-102.6-102.8-.3-.8.8-1 1.3-.5l2.4 3.3c0-.4.2-.9.7-1a129 129 0 0 0 46.6-29.2 100.2 100.2 0 0 0 21.3-33.3l.4-1c1.7-5 3.2-10.2 7-14.2Z" fill="#000"/></g><g transform="matrix(.99789 0 0 1 156 62)"><g fill-rule="evenodd" clip-rule="evenodd"><path d="M431.6 424.8c-4-5.8-13.5-48.4-19.6-55 .5-25 7.4-112-12.4-151.2 4.2-4.2 15.3-40.5 12.4-54.3 9.4-28.8-50.7-74.5-73.5-86.8C232.2 20.5 78.3 83.4 30 188.9 1 252.5.4 323.6-2.8 392c-.4 14.7-1.8 29.5-1.8 44 2.1 13 12.3 26 4.6 36.7-8.5 5.9-25.8 20.3-18 28.4 4.4 3.8 11.6 1.6 16.5 5.2 2.5 1.4 4 4.4 7 4.9 26.5-1 45.2-1.1 71.8-2.2 11.7-.4 29.4 4.6 42.8-5.3 46.8 26 27.2-11.7 36.7-38.5 28.7 9.7 86 40.7 116.7 41.7 25 3.1 48.3-11.4 72.8-8 30.4 11.2 66.1 13.7 94-5.4 7-5 14.7.8 23.5-4.6 17-8.2-23.6-55-32.2-64Z" fill="#d08b5b"/><path d="M30 189C78.3 83.3 232.2 20.4 338.5 77.4c22.8 12.3 82.9 58 73.5 86.8 2.2 10.4-3.7 33.7-8.4 46.3-22.2 16.4-86.8 13-194-10.2l-4.1-.9-36.7 21.7-15 56.5c-10 10-18.2 22.2-24.5 36.6 0 0-15-16.6-37.5-14.5A95.6 95.6 0 0 0 59.5 320c-6.7 7.2-6.8 23.3-.4 48.3l.4 1.5 32.3 10h15l41 50.2 6 51.7c-1.3 22.6 3.8 42.7-33.7 21.8-13.4 9.9-31.1 5-42.8 5.3-26.6 1-45.3 1.2-71.9 2.2-2.9-.5-4.4-3.5-7-5-4.8-3.5-12-1.3-16.5-5-7.7-8.2 9.6-22.6 18.1-28.5 7.7-10.7-2.5-23.8-4.6-36.6 0-14.6 1.4-29.4 1.8-44l.3-6.2C.5 319.3 1.9 250.6 30 189Zm373 204.5 9.4-35.4-.2 5.3-.2 6.5c6.1 6.5 15.7 49 19.6 55l.9.9c10.1 10.9 47.8 55 31.3 63-8.8 5.4-16.5-.4-23.5 4.6-27.9 19.1-63.6 16.6-94 5.3-3.6-.5-7.1-.6-10.6-.4l-1.5-4.6 33.3-28.6 35.6-71.6Z" fill="#b58143"/><path d="M396.8 215.3c-.4-2.2 2.6-3.8 3.8-1.6 8.4 16 11.8 34.5 14.7 52.2 3 17.8 5 35.7 5.1 53.8.1 14-1.1 28-3.5 42l.3 1 1.6 5.4.8 2.8 4.7 15.7c3.4 10.9 7 21.8 11.4 32.4 4.3 10.3 9.5 20.2 15.7 29.5 6 9 15.4 16.5 19.6 26.4 1.5 3.5-.7 8-4.7 7.5-.3.3-.7.6-1.3.6-3 .3-6 0-9.2-.3a1.4 1.4 0 0 1 0-2.7c1.4 0 2.7-.2 4-.3-9-5.3-15.4-15.7-20.5-24.1a176 176 0 0 1-15.6-35 274.8 274.8 0 0 1-10.2-42.2 294 294 0 0 1-11.4 37.2l-.6 1.6C390.9 444.5 376.7 472 353 490l-3.3 2.3 1.3.8c1.4.7 2.7 1.5 4 2 4.8 2.3 10 4 15 5.2 10.7 2.5 21.8 1.8 32.6 2.1 3.6.2 5.6 5.5 2 7.2a49.4 49.4 0 0 1-37.2.5 66.7 66.7 0 0 1-24-13.9c-23.7 13.3-53.1 14.7-79.4 10-13.7-2.4-27-7-38.7-14.6a68.2 68.2 0 0 1-25-29c-.4-1 1-2.3 1.9-1.3 17.9 21.8 48.8 31 76 32.6 14.4 1 29.3.2 43.2-4.1a78.8 78.8 0 0 0 34-21.7c19.2-20.4 30.8-48 39-74.4 9-28.6 13.3-58.7 14.2-88.7.4-15.2-.2-30.5-2.5-45.5-2.4-15-6.8-29.4-9.4-44.2Zm-269-129c1.2-.7 2.1 1 1 1.8a286.7 286.7 0 0 0-58.6 62c-29.9 42.5-49 91.6-58 142.7a486.9 486.9 0 0 0-6 91.4c.2 12 1 24.2 1.7 36.3l.9 13.4c.4 6.3.7 12.5.5 18.8l-.1 1.4c-.4 7.3.3 14.7-1.5 21.8-1 3.7-6.1 4.3-8 1l-1-1.8a89.3 89.3 0 0 1-16.4 19.2c3-.7 6-1 9.2-.7 5 .6 9.3 2.5 12.5 5.8 3-1.4 6.3-2.3 10-2.3 2.7 0 4.7 3.1 3.2 5.5-3.1 4.8-7.4 7.4-12.3 10a6.2 6.2 0 0 1-9-3.3v-.3c-1.4-4.6-9-3.9-12.7-3.2l-1 .3c-6.8 1.4-13.4 3.2-20.2 1.3-4.4-1.2-5.6-7.8-1.3-10 13.4-7 24.7-16.4 36.4-25.8-2.6-6.3-4-13.3-5.7-19.7-2.4-9-3-18.7-4-28a522 522 0 0 1-2-53c.6-59.6 10.8-119.4 36.8-173.4a270.8 270.8 0 0 1 44.1-65 212.9 212.9 0 0 1 61.5-46.2Zm-20.9 292c-.7-1 .7-2.2 1.6-1.6a120.3 120.3 0 0 1 43.9 56.3c9 22.2 14.6 49.4 5.7 72.6-1.4 3.7-8.3 5-9 0-3-22.6-3.6-45.2-10.4-67.2a211.8 211.8 0 0 0-31.8-60.1ZM91 451.7c.1-.4.8-.4.8 0-.5 8-.9 16-1.9 24l-1.7 11.5c-.5 4-.4 8-2.7 11.3-3 4.5-11.1 3.2-10.9-3 .2-4.2 2.2-6.9 4-10.6a102 102 0 0 0 3.2-7.3l1.4-3.7c3-7.4 5.7-14.6 7.8-22.2Zm-36.6-21.2c0-.6 1-.4 1 .2a261.5 261.5 0 0 1-6.8 48.7l-.5 2.1c-1.2 5.3-2 11.5-4.7 16.2-2.7 4.8-9 1.3-8.2-3.4 1-5.6 4.4-11.2 6.4-16.5a357 357 0 0 0 12.8-47.2Zm68.3 31.4.2-.3c1-1 2.3-.3 2.8.7 1.8 4.4.9 9.6.7 14.2v1c0 4.8 0 9.2-2.1 13.5-2.6 5.3-9.5 2-10-2.7-.6-5 1.8-10.1 3.4-15 1-3 1.7-6.1 3.2-9-1.3.3-2.5.8-3.7 1-.6.2-.8-.6-.3-.7 2-.7 4.2-1.2 5.8-2.7Zm272.6 15.5c-.6-.7.2-1.6 1-1.2a85.7 85.7 0 0 0 29.6 8.4c4.6.4 4.7 7.8 0 7.3-11.2-1-23-6-30.6-14.5ZM52.6 323.7c8.6-19.3 35.7-36.4 54-18.5.3.4 0 1.1-.6 1-11.3-4.8-25.1 1.2-33 9.7a41.3 41.3 0 0 0-10.7 24.6 35.1 35.1 0 0 0 7.6 25.8c3.2 3.8 7.5 7.3 12.6 7.7 5 .5 9.4-3.1 14.2-4.1 3.7-.7 6.4 1.5 6.8 5.1.8 8-7.2 13.3-14 14.6a29.5 29.5 0 0 1-21.3-4.1c-20.5-13-25-40.8-15.6-61.8Zm192.6-189c3.7-3.6 10 0 8.7 5-3 10.8-9.2 20-16 28.7a258.7 258.7 0 0 1-21.4 23.8 201.8 201.8 0 0 1-24.4 20.4l-2.6 1.9c-6.1 4.3-12.6 8.6-19.5 11.7a184.5 184.5 0 0 1-9.7 41.8 201 201 0 0 1-18 37.2l-1 1.7c-6.8 10.7-14.8 22.7-26.1 28.5l-1 .4c2.5 1.7 4.6 3.8 6 6.9 1.3 3.3-1.6 6.5-4.4 7.6-6 2.3-11.7-1.6-17-5.9l-.6 1.6c-1.2 3.3-1.6 6.8-4.6 9-1.5 1-3.3.1-4.2-1-3-4 .1-9.4 2.7-12.6l1.2-1.3A27 27 0 0 0 90 338c-6.2-3.3-15.4-3.9-19 3.4-.2.6-1.1.3-1.1-.3 0-9 9.2-13.8 17.1-14.5a34 34 0 0 1 16.7 4l1 .4c1.9 1 3.9 1.8 5.8 2.7-.3-.8-.3-1.8.2-2.7 6-11.8 16.3-21.3 23.8-32.2a193.8 193.8 0 0 0 30.2-70.5c-.9.2-1.9-.6-1.8-1.5.1-2.2 1.2-4.2 3.1-5a190 190 0 0 0 3.2-35.3c0-1 1.3-.9 1.4 0 1 10.5 1 21.2.2 31.8 5-4.6 10.3-9 15-13.7 7.3-7.1 14.4-14.4 21.1-22 7-7.7 13.4-15.7 19.4-24.2l3.1-4.4c4.8-6.8 9.7-13.6 15.8-19.4Zm-9.4-76c41.1-2.6 85 2.4 122 21.7a115 115 0 0 1 47.3 46.6c6.7 12 11.7 25.1 13.7 38.7 2 14-.4 26.4-9.3 37.5-3.5 4.4-9.5-.6-8.6-5 5.3-27.6-3.3-54.8-18.6-77.6-22.3-33.1-61.1-47.8-99-54.4a273.8 273.8 0 0 0-56.2-3.9c-14.4.5-29.1 1.9-42.8 6.7-.5.2-.8-.7-.2-1a177 177 0 0 1 51.7-9.4Zm61 62.2c2.1-1.3 4.7 0 5.5 2.2 2.5 7.7-2.9 17.8-6.5 24.5a137 137 0 0 1-14.7 21.2 112.2 112.2 0 0 1-40.6 31.1c-1 .5-2.1-.7-1.2-1.5 12-11.3 23-23.3 32.5-36.8 4.6-6.7 8.5-13.7 12.2-21 3.3-6.4 6.5-15.7 12.8-19.7Zm69.2 9c1.4-4.7 9-3.9 8.8 1.2-.8 13.2-7 26.5-13.8 37.7-7 11.5-15.8 21.7-26 30.6-.4.4-1.1-.2-.7-.7 8.8-9.6 15.8-20.5 21-32.3 5.2-11.8 7.2-24.2 10.7-36.4Zm-38.3-2c1.5-4.2 8.5-3.9 8.1 1-1.2 13.5-9 27.6-16.4 38.7a132.6 132.6 0 0 1-28.8 31c-.4.3-1-.2-.6-.6a123 123 0 0 0 32.6-51.5c2-6.2 3-12.6 5.1-18.7Z" fill="#000"/></g></g><g transform="translate(315 248)"><path fill-rule="evenodd" clip-rule="evenodd" d="m182.2 226 .7-.2c5.6-1.3 10.9-3 16 .4 5 3.2 5.6 9.2 1.8 13.6-4 4.6-9.2 4.3-14.7 4.4h-.3a135.2 135.2 0 0 1-26.5-2.2l-2.5-.5c-2.5-.5-5-1.2-6.3-3.6-2.3-4.3 14.6-7.7 16.7-8.2 5-1.5 10-2.6 15.1-3.7Zm9.4-51.6a23.2 23.2 0 0 1-10.2 5.9c-10 3-23 1.4-31.1-1.7-1.7-.6-3.3-1.9-4.3-3.5a5.8 5.8 0 0 1-.4-5c.1-.5.4-1 .6-1.4a6 6 0 0 1 3.3-3 7 7 0 0 1 4.5-.3l.6.2c5.2 1.6 13.7 4.4 20.8 3.8 4.3-.3 8-1.8 10-5.7 1-2 .7-4-.2-5.9-1.4-2.8-4.1-5.2-6.4-6.9-3.3-2.4-6.7-3.3-10.3-4.3l-4-1.2c-.5-.2-1-.5-1.2-.8-.3-.4-.5-.9-.6-1.3 0-.5 0-1 .3-1.4.2-.4.5-.7 1-1 7-3 16-1 22.8 4 3.4 2.4 6.3 5.5 8 9a17 17 0 0 1 1.7 10.6c-.7 4.1-2.4 7.4-4.9 9.9ZM77.1 104.6c2-1 3.6 3.1 4 4.2l.9 2.3a26 26 0 0 0 5.7 10.2c2.4 2.3 6.3 4.3 9 1.6 2.7-2.6 1.4-5.4 1.8-8.6.7-5.6 8.4-11.3 13-5.4 10.5 13.4-5.7 31.9-20.6 28.6a23 23 0 0 1-16.2-15l-.1-.3c-1.5-4.6-3-15.2 2.5-17.6Zm135.1 9.2v-.1c-5-11.4 12.7-16.2 14.3-6v.6c1.5 11.3-1.6 26.5-15.4 27.7-15.6 1.2-22-16.1-20.6-28.8.2-2.3 3-2.6 3.8-.6l.2.5c2.5 6.4 4.9 18.7 13.7 18.7 6 0 5.7-8 4-12ZM223.5 81c9-.3 9 13.7 0 13.9-29.8.7-59.6 1.6-89.4 1.8h-5.5c-28 .2-56 .6-84-1.8-2.4-.2-2-3.5 0-3.4 29.3-4.2 59-5.4 88.5-7 30-1.6 60.3-2.4 90.4-3.5Z" fill="#000"/></g><g transform="translate(279 400)"></g><g transform="translate(179 343)"></g><g transform="translate(203 303)"><path fill-rule="evenodd" clip-rule="evenodd" d="M367.1 98.3c-6.7 9-19.2 12-30.7 11-24.8-2.4-32.6-30.6-33.5-52.6 16.7 4.7-1.4-28.5 55.6-32 20-1.8 14.5 10.3 23.4 19.2-.2 18.6-3.3 38.8-14.8 54.4ZM249 77c-14.7 68.6-95 52.3-103.4-9.6 7.8-5.5 5.7-19 15.4-24 15.3-9.8 34.5-9.4 52-9.1 22.2 1.5 28.5 10.7 40 20.8-.6 6.7-2.2 14.7-4 21.9Zm150-63.8-2.4-.4a39 39 0 0 0-8.3-1.9C359.7 4.7 293.7 13.8 291 38c-9 3-17 .4-27.4.6-8-33.5-146.6-28.8-153.3-8.6-6.5-2-16-1.5-23.3-1.8-15.6-.3-31.3 1-46.6 4.4C11.6 37-27.5 42.5-7.6 78.3c3.5 3.5 9.3.7 9.5-4-6.7-17 8.5-19 20.1-24 29-10.4 58.6-11.8 88.5-8.6 2.3 2.7 5.7 5 9.3 6.2 20 3.3 9.5 18.2 22.2 20.3-2.3 51.9 60.6 80.2 97 46.1 14.6-14.2 18.1-35.3 21.5-54.3a5 5 0 0 0 3.6-2.7c4.3-4.3 7-8.2 15.4-9.4 8.5-1.2 15 1.2 16 1.9l.7 1.3c.4.7 1 1.2 1.5 1.7-8.4 51.6 31.7 84.2 72.2 57.5 17.5-16.6 21.3-41.9 22-64.5a6.8 6.8 0 0 0 3-7.7c-1-4.9 1.6-9 5.8-11.1 5.5-2.8 4.6-12.7-1.8-13.8Z" fill="#000"/></g></g></svg>
      </g>
      <g opacity="0">
        <!-- Occasional expression change (lovingGrin1) -->
        <animate attributeName="opacity" calcMode="discrete" values="0;1;0" keyTimes="0;0.4871;0.5513" dur="37.42s" repeatCount="indefinite"/>
        <svg x="2" y="4" width="96" height="96" viewBox="0 0 704 704"><metadata xmlns:rdf="http://www.w3.org/1999/02/22-rdf-syntax-ns#" xmlns:xsi="http://www.w3.org/2001/XMLSchema-instance" xmlns:dc="http://purl.org/dc/elements/1.1/" xmlns:dcterms="http://purl.org/dc/terms/"><rdf:RDF><rdf:Description><dc:title>Open Peeps</dc:title><dc:creator>Pablo Stanley</dc:creator><dc:source xsi:type="dcterms:URI">https://www.openpeeps.com/</dc:source><dcterms:license xsi:type="dcterms:URI">https://creativecommons.org/publicdomain/zero/1.0/</dcterms:license><dc:rights>Remix of „Open Peeps” (https://www.openpeeps.com/) by „Pablo Stanley”, licensed under „CC0 1.0” (https://creativecommons.org/publicdomain/zero/1.0/)</dc:rights></rdf:Description></rdf:RDF></metadata><mask id="a13xviewboxMask"><rect width="704" height="704" rx="0" ry="0" x="0" y="0" fill="#fff" /></mask><g mask="url(#a13xviewboxMask)"><g fill-rule="evenodd" clip-rule="evenodd"><path d="M705.3 1074a2351.1 2351.1 0 0 1-15.6-101c-1-7.7-2.5-16.4 2.7-22 7.3-8 14-14.8 14.8-26.2.8-10.7-2.8-22.4-5-32.8a809.4 809.4 0 0 0-17.3-64.7c-6.6-21.7-13.9-43.2-21.3-64.6-6.9-20-13.5-40.3-22.5-59.5-17-36.5-46-63.5-81.6-81.6-9-4.5-27-20.5-36.3-24-8.5-3.4-8.5 6.3-16.9 2.6-6.7-2.9-13-6.7-16.7-13.2-4-7-14.3-16.9-15.9-25-3.3-17.4.3-32.2-12-45.3a90 90 0 0 0-41.1-23.8c-33.7-9.3-78.5-2.8-98.8 28.5-9.7 14.9-13 33-26.2 45.1-11.4 10.7-8.8 18-23.6 23.4-.9.3-23.6-4.5-24.4-4.2-16.2-3.5-31.7 6.2-46.5 11.8a325.4 325.4 0 0 0-63 32.3 399.2 399.2 0 0 0-102.3 98.5 482.5 482.5 0 0 0-76.4 161c-1.7 6.4-3.5 13-1.5 19.4 1.7 5.3 5.4 9.2 9.8 12.4 6 4.3 18 7 17.7 15.7-.1 6.6-2.4 13.5-3.5 20-1.3 7.7-2.3 15.5-3.4 23.2-4.8 35.4-8.6 71-10.3 106.6a920 920 0 0 0-.5 106c.1 2.3.8 4.5 2 6.2-1 .4-1.2 2.4.1 2.7l2.7.5a12 12 0 0 0 7 2.4l5.5.2c19.3 4 38.6 7.9 58.1 10.8 23.8 3.5 47.6 6.3 71.5 8.7 49.2 4.8 98 3.2 147.1.6a1877 1877 0 0 1 147.4-2c49.2 1.4 98.4 3.5 147.6 4.4 55 1 110-.5 164.8-5 7.5-.5 12.2-6.5 10.7-14-8.9-44.7-19-89.1-27-134Z" fill="#d08b5b"/><path d="m201 597.5 1.2-.4c14.5-5.7 29.6-14.8 45.4-11.4.5-.2 10.8 1.9 17.9 3.2l-6.7 7L247 598c40.7 67.1 88.8 100.7 144.3 100.7 55.5 0 97.7-33.6 126.4-100.7l4-1c.4 0 1 .2 1.5.4 9.3 3.6 27.4 19.6 36.3 24.1 35.6 18 64.5 45 81.6 81.6 8.7 18.6 15.2 38 21.8 57.5l.7 2c7.4 21.4 14.7 43 21.3 64.6 6.3 20.4 12 41 16.6 61.8l.7 2.9c2.2 10.4 5.8 22 5 32.8a29 29 0 0 1-3 10.7l-80.4 29 38.4 261.3c-35.1 1.5-70.3 2-105.5 1.3-49.2-.9-98.4-3-147.6-4.3-47.7-1.2-95.3-.7-143 1.7l-12 .6a946.3 946.3 0 0 1-139.5-1l-3.1-.3v-38.3l16.3-212.9-83-15.6-81.3-39.5a21.7 21.7 0 0 1-5.6-8.8c-1.9-6-.5-12 1-18l.5-1.3a492.8 492.8 0 0 1 76.4-161A399.3 399.3 0 0 1 138 629.7c19.8-13 40.9-23.9 63-32.3Z" fill="#e279c7"/><path d="M232.2 584.6c5.1-.3 10.3.6 15.4 1 .4.1.6.8 0 .9-9 1.9-18 4.5-26.9 7.1l-3.8 1.2c-10 3-19.8 6-29.6 10-19.4 7.9-37.8 18.5-54.8 30.8C67.2 682.8 20 754.3-9.9 828.3a526 526 0 0 0-24.3 77c-.4 1.6-2 5.4-1 7 .7 1.3 3.6 2.1 5 2.9l4.5 2.3 25.2 12.9 2.3 1.1c38 18.6 78.4 34.4 121 35.5l.4-3.7a342 342 0 0 1 9.9-60c.3-1 1.6-.6 1.7.3 3 23.1 2 46.4 1 69.7-1.8 41-4.3 82.2-6.5 123.3-1.2 20.6-2.6 41-3.9 61.7-1.3 20.5-1.7 41.6-4.7 62-.6 4.6-6 7-10 6.6-4.4-.5-7.9-4.5-8-9 0-11.9 1.5-24 2.4-35.8l2.5-33.8c3.1-41.1 6.8-82.2 10.2-123.3a4771 4771 0 0 1 3.8-43.7C76.4 979.8 34.2 963-6.1 943.5c-.6 13.2-2 26.5-3.4 39.6-3.8 36.8-7.1 73.6-9.6 110.5a2254.2 2254.2 0 0 0-4.2 92.7l-.2 7c0 4.4-.5 8.5-4.3 11.7-3.7 3.3-8.9 3.5-12.6 0-5-4.6-4.2-10.9-4-17.1a1675.6 1675.6 0 0 1 1.8-47.2 1321 1321 0 0 1 10.5-109.5l2-14c3.5-26 7.5-52.7 15.5-77.9-3.1-1.5-6.2-3-9.3-4.7-5.5-2.7-11.2-5.4-16.6-8.4-4.2-2.5-7.9-5.8-9-10.8-1.4-5.5.6-11.5 2-16.9v-.4a502 502 0 0 1 26.6-80 523.2 523.2 0 0 1 67.8-117 353.8 353.8 0 0 1 88.7-83.3 239 239 0 0 1 53.8-25.7 142.6 142.6 0 0 1 42.8-7.5Zm90.1-66c6-6.5 18.1.2 15.2 8.8a108.2 108.2 0 0 1-34.7 52A79.4 79.4 0 0 1 247 598l1.7 2.4a321.1 321.1 0 0 0 46.1 52.6c36 31.2 84.8 48 132 36 37.1-9.4 69.8-38.8 79.4-76.2-1.3.6-3 .9-4.8.5-7.7-1.7-15.3-9.8-20.3-15.6-5.3-6.3-9.5-13-12.6-20.7-5.6-14-7.4-32.1.3-45.7 1-1.7 3-.7 3.3 1l.3 2.5c1.5 12.7 3.3 25 9.3 36.6a76 76 0 0 0 18.2 23.1c2.6 2 5.8 3.6 8.1 6l.5.4c.6-5 4.1-7.3 7.6-7.2 3.3.2 7.3 1.6 8.8 2.3l.1.1a341 341 0 0 1 65.1 42 259 259 0 0 1 88.4 129c7.5 25.3 11.8 51.4 16.3 77.4l2.8 16c4.2 23.9 8.9 48.4 18.4 70.7 2.5 5.7.6 11.1-5.5 13.4A1493 1493 0 0 1 688 953c3.7 16 6 32.5 8.7 48.5 6 34.1 13.2 68 19.4 102 3.2 17.5 6.1 35 9.3 52.3l4.7 25.2 2.4 13.6.1.7c.5 2.4 1 4.9.4 7.3-.8 2.7-2.9 4.6-4.8 6.6-1.6 1.6-3.8 1.6-5.7.7l-.7-.3c-3.4-1.6-6-3.2-7.3-7-.7-2.5-1-5.2-1.5-7.7a3535.6 3535.6 0 0 1-7.8-43.6l-1.6-9.1c-5.2-31.4-10.2-62.9-12.8-94.5-1-14-2.3-28.1-3.5-42.2l-.9-10.5c-1.1-13.3-2.5-27-2.7-40.5l-4.5 1.6L657 964c-5.5 2-12.5 6-18.4 5.2-2.9-.3-5-1.2-6.8-2.9 2 28.8 4.8 57.4 8.5 86a1965.7 1965.7 0 0 0 22 135c.6 3.2 1.4 6.4 1.9 9.6.5 3.7-.5 5.9-2.5 9-1.7 2.4-5 3.7-7.8 2-3.6-2.3-5.5-4.3-6.5-8.4-1-3.7-1.6-7.6-2.3-11.4a1654.2 1654.2 0 0 1-11.4-65.2c-7.8-52-12.7-104.4-15.2-156.8a1388 1388 0 0 1-1.4-77.8c0-13.3.5-26.6 1.4-39.9 1-13.4 3-26.5 4.8-39.8 0-.5.7-.5.7 0 .8 14.9 2.1 29.8 2.8 44.7.6 14.3.9 28.5 1.4 42.8.6 18.7 1.5 37.5 2.7 56.2a9.6 9.6 0 0 1 8.5-3.1c4.7-1 9.7-3.4 14.1-5l16.8-5.5 26.4-8.7a679 679 0 0 1-18-80.8l-2-12.3c-4-24.2-8.5-48.5-15.8-72a229.8 229.8 0 0 0-34.8-68.2 370.2 370.2 0 0 0-52.7-55.3C557 627 539.7 614 523 600c.1.9.2 2 0 3-3.5 25.9-17 50-35.8 67.9-37.7 36-93.6 43.4-142 26.5-46.7-16.3-88-55-102.6-102.8-.3-.8.8-1 1.3-.5l2.4 3.3c0-.4.2-.9.7-1a129 129 0 0 0 46.6-29.2 100.2 100.2 0 0 0 21.3-33.3l.4-1c1.7-5 3.2-10.2 7-14.2Z" fill="#000"/></g><g transform="matrix(.99789 0 0 1 156 62)"><g fill-rule="evenodd" clip-rule="evenodd"><path d="M431.6 424.8c-4-5.8-13.5-48.4-19.6-55 .5-25 7.4-112-12.4-151.2 4.2-4.2 15.3-40.5 12.4-54.3 9.4-28.8-50.7-74.5-73.5-86.8C232.2 20.5 78.3 83.4 30 188.9 1 252.5.4 323.6-2.8 392c-.4 14.7-1.8 29.5-1.8 44 2.1 13 12.3 26 4.6 36.7-8.5 5.9-25.8 20.3-18 28.4 4.4 3.8 11.6 1.6 16.5 5.2 2.5 1.4 4 4.4 7 4.9 26.5-1 45.2-1.1 71.8-2.2 11.7-.4 29.4 4.6 42.8-5.3 46.8 26 27.2-11.7 36.7-38.5 28.7 9.7 86 40.7 116.7 41.7 25 3.1 48.3-11.4 72.8-8 30.4 11.2 66.1 13.7 94-5.4 7-5 14.7.8 23.5-4.6 17-8.2-23.6-55-32.2-64Z" fill="#d08b5b"/><path d="M30 189C78.3 83.3 232.2 20.4 338.5 77.4c22.8 12.3 82.9 58 73.5 86.8 2.2 10.4-3.7 33.7-8.4 46.3-22.2 16.4-86.8 13-194-10.2l-4.1-.9-36.7 21.7-15 56.5c-10 10-18.2 22.2-24.5 36.6 0 0-15-16.6-37.5-14.5A95.6 95.6 0 0 0 59.5 320c-6.7 7.2-6.8 23.3-.4 48.3l.4 1.5 32.3 10h15l41 50.2 6 51.7c-1.3 22.6 3.8 42.7-33.7 21.8-13.4 9.9-31.1 5-42.8 5.3-26.6 1-45.3 1.2-71.9 2.2-2.9-.5-4.4-3.5-7-5-4.8-3.5-12-1.3-16.5-5-7.7-8.2 9.6-22.6 18.1-28.5 7.7-10.7-2.5-23.8-4.6-36.6 0-14.6 1.4-29.4 1.8-44l.3-6.2C.5 319.3 1.9 250.6 30 189Zm373 204.5 9.4-35.4-.2 5.3-.2 6.5c6.1 6.5 15.7 49 19.6 55l.9.9c10.1 10.9 47.8 55 31.3 63-8.8 5.4-16.5-.4-23.5 4.6-27.9 19.1-63.6 16.6-94 5.3-3.6-.5-7.1-.6-10.6-.4l-1.5-4.6 33.3-28.6 35.6-71.6Z" fill="#b58143"/><path d="M396.8 215.3c-.4-2.2 2.6-3.8 3.8-1.6 8.4 16 11.8 34.5 14.7 52.2 3 17.8 5 35.7 5.1 53.8.1 14-1.1 28-3.5 42l.3 1 1.6 5.4.8 2.8 4.7 15.7c3.4 10.9 7 21.8 11.4 32.4 4.3 10.3 9.5 20.2 15.7 29.5 6 9 15.4 16.5 19.6 26.4 1.5 3.5-.7 8-4.7 7.5-.3.3-.7.6-1.3.6-3 .3-6 0-9.2-.3a1.4 1.4 0 0 1 0-2.7c1.4 0 2.7-.2 4-.3-9-5.3-15.4-15.7-20.5-24.1a176 176 0 0 1-15.6-35 274.8 274.8 0 0 1-10.2-42.2 294 294 0 0 1-11.4 37.2l-.6 1.6C390.9 444.5 376.7 472 353 490l-3.3 2.3 1.3.8c1.4.7 2.7 1.5 4 2 4.8 2.3 10 4 15 5.2 10.7 2.5 21.8 1.8 32.6 2.1 3.6.2 5.6 5.5 2 7.2a49.4 49.4 0 0 1-37.2.5 66.7 66.7 0 0 1-24-13.9c-23.7 13.3-53.1 14.7-79.4 10-13.7-2.4-27-7-38.7-14.6a68.2 68.2 0 0 1-25-29c-.4-1 1-2.3 1.9-1.3 17.9 21.8 48.8 31 76 32.6 14.4 1 29.3.2 43.2-4.1a78.8 78.8 0 0 0 34-21.7c19.2-20.4 30.8-48 39-74.4 9-28.6 13.3-58.7 14.2-88.7.4-15.2-.2-30.5-2.5-45.5-2.4-15-6.8-29.4-9.4-44.2Zm-269-129c1.2-.7 2.1 1 1 1.8a286.7 286.7 0 0 0-58.6 62c-29.9 42.5-49 91.6-58 142.7a486.9 486.9 0 0 0-6 91.4c.2 12 1 24.2 1.7 36.3l.9 13.4c.4 6.3.7 12.5.5 18.8l-.1 1.4c-.4 7.3.3 14.7-1.5 21.8-1 3.7-6.1 4.3-8 1l-1-1.8a89.3 89.3 0 0 1-16.4 19.2c3-.7 6-1 9.2-.7 5 .6 9.3 2.5 12.5 5.8 3-1.4 6.3-2.3 10-2.3 2.7 0 4.7 3.1 3.2 5.5-3.1 4.8-7.4 7.4-12.3 10a6.2 6.2 0 0 1-9-3.3v-.3c-1.4-4.6-9-3.9-12.7-3.2l-1 .3c-6.8 1.4-13.4 3.2-20.2 1.3-4.4-1.2-5.6-7.8-1.3-10 13.4-7 24.7-16.4 36.4-25.8-2.6-6.3-4-13.3-5.7-19.7-2.4-9-3-18.7-4-28a522 522 0 0 1-2-53c.6-59.6 10.8-119.4 36.8-173.4a270.8 270.8 0 0 1 44.1-65 212.9 212.9 0 0 1 61.5-46.2Zm-20.9 292c-.7-1 .7-2.2 1.6-1.6a120.3 120.3 0 0 1 43.9 56.3c9 22.2 14.6 49.4 5.7 72.6-1.4 3.7-8.3 5-9 0-3-22.6-3.6-45.2-10.4-67.2a211.8 211.8 0 0 0-31.8-60.1ZM91 451.7c.1-.4.8-.4.8 0-.5 8-.9 16-1.9 24l-1.7 11.5c-.5 4-.4 8-2.7 11.3-3 4.5-11.1 3.2-10.9-3 .2-4.2 2.2-6.9 4-10.6a102 102 0 0 0 3.2-7.3l1.4-3.7c3-7.4 5.7-14.6 7.8-22.2Zm-36.6-21.2c0-.6 1-.4 1 .2a261.5 261.5 0 0 1-6.8 48.7l-.5 2.1c-1.2 5.3-2 11.5-4.7 16.2-2.7 4.8-9 1.3-8.2-3.4 1-5.6 4.4-11.2 6.4-16.5a357 357 0 0 0 12.8-47.2Zm68.3 31.4.2-.3c1-1 2.3-.3 2.8.7 1.8 4.4.9 9.6.7 14.2v1c0 4.8 0 9.2-2.1 13.5-2.6 5.3-9.5 2-10-2.7-.6-5 1.8-10.1 3.4-15 1-3 1.7-6.1 3.2-9-1.3.3-2.5.8-3.7 1-.6.2-.8-.6-.3-.7 2-.7 4.2-1.2 5.8-2.7Zm272.6 15.5c-.6-.7.2-1.6 1-1.2a85.7 85.7 0 0 0 29.6 8.4c4.6.4 4.7 7.8 0 7.3-11.2-1-23-6-30.6-14.5ZM52.6 323.7c8.6-19.3 35.7-36.4 54-18.5.3.4 0 1.1-.6 1-11.3-4.8-25.1 1.2-33 9.7a41.3 41.3 0 0 0-10.7 24.6 35.1 35.1 0 0 0 7.6 25.8c3.2 3.8 7.5 7.3 12.6 7.7 5 .5 9.4-3.1 14.2-4.1 3.7-.7 6.4 1.5 6.8 5.1.8 8-7.2 13.3-14 14.6a29.5 29.5 0 0 1-21.3-4.1c-20.5-13-25-40.8-15.6-61.8Zm192.6-189c3.7-3.6 10 0 8.7 5-3 10.8-9.2 20-16 28.7a258.7 258.7 0 0 1-21.4 23.8 201.8 201.8 0 0 1-24.4 20.4l-2.6 1.9c-6.1 4.3-12.6 8.6-19.5 11.7a184.5 184.5 0 0 1-9.7 41.8 201 201 0 0 1-18 37.2l-1 1.7c-6.8 10.7-14.8 22.7-26.1 28.5l-1 .4c2.5 1.7 4.6 3.8 6 6.9 1.3 3.3-1.6 6.5-4.4 7.6-6 2.3-11.7-1.6-17-5.9l-.6 1.6c-1.2 3.3-1.6 6.8-4.6 9-1.5 1-3.3.1-4.2-1-3-4 .1-9.4 2.7-12.6l1.2-1.3A27 27 0 0 0 90 338c-6.2-3.3-15.4-3.9-19 3.4-.2.6-1.1.3-1.1-.3 0-9 9.2-13.8 17.1-14.5a34 34 0 0 1 16.7 4l1 .4c1.9 1 3.9 1.8 5.8 2.7-.3-.8-.3-1.8.2-2.7 6-11.8 16.3-21.3 23.8-32.2a193.8 193.8 0 0 0 30.2-70.5c-.9.2-1.9-.6-1.8-1.5.1-2.2 1.2-4.2 3.1-5a190 190 0 0 0 3.2-35.3c0-1 1.3-.9 1.4 0 1 10.5 1 21.2.2 31.8 5-4.6 10.3-9 15-13.7 7.3-7.1 14.4-14.4 21.1-22 7-7.7 13.4-15.7 19.4-24.2l3.1-4.4c4.8-6.8 9.7-13.6 15.8-19.4Zm-9.4-76c41.1-2.6 85 2.4 122 21.7a115 115 0 0 1 47.3 46.6c6.7 12 11.7 25.1 13.7 38.7 2 14-.4 26.4-9.3 37.5-3.5 4.4-9.5-.6-8.6-5 5.3-27.6-3.3-54.8-18.6-77.6-22.3-33.1-61.1-47.8-99-54.4a273.8 273.8 0 0 0-56.2-3.9c-14.4.5-29.1 1.9-42.8 6.7-.5.2-.8-.7-.2-1a177 177 0 0 1 51.7-9.4Zm61 62.2c2.1-1.3 4.7 0 5.5 2.2 2.5 7.7-2.9 17.8-6.5 24.5a137 137 0 0 1-14.7 21.2 112.2 112.2 0 0 1-40.6 31.1c-1 .5-2.1-.7-1.2-1.5 12-11.3 23-23.3 32.5-36.8 4.6-6.7 8.5-13.7 12.2-21 3.3-6.4 6.5-15.7 12.8-19.7Zm69.2 9c1.4-4.7 9-3.9 8.8 1.2-.8 13.2-7 26.5-13.8 37.7-7 11.5-15.8 21.7-26 30.6-.4.4-1.1-.2-.7-.7 8.8-9.6 15.8-20.5 21-32.3 5.2-11.8 7.2-24.2 10.7-36.4Zm-38.3-2c1.5-4.2 8.5-3.9 8.1 1-1.2 13.5-9 27.6-16.4 38.7a132.6 132.6 0 0 1-28.8 31c-.4.3-1-.2-.6-.6a123 123 0 0 0 32.6-51.5c2-6.2 3-12.6 5.1-18.7Z" fill="#000"/></g></g><g transform="translate(315 248)"><g fill-rule="evenodd" clip-rule="evenodd"><path d="M127.8 246.7s14.2 11 40.6 11c26.4 0 41.7-9.9 41.7-9.9s-23.1-14-41.7-15.2c-18.6-1.1-40.6 14-40.6 14Z" fill="#FF6C6C"/><path d="M96.3 218.9c0-11 9.6-13 18.7-11.5a332 332 0 0 0 46.3 4.6h2.7c.5-.6 1.2-1 2.2-1.2 8.6-1 17.4-.8 26-1 7.6-.3 15.4-1 23-.4h.6c9.2 1 19 5.6 17.9 16.5-1 10-10.7 19-18.3 24.5a60 60 0 0 1-7 4.4A64 64 0 0 1 184 262a117 117 0 0 1-57.2-8.1c-5.7-2.6-11-5.8-15.7-9.8-7.3-6-14.9-15.3-14.8-25.3Zm73 19.8a64 64 0 0 0-21.6 3c-4.7 1.6-9 4.5-13.6 6.6a118 118 0 0 0 48.8 6 59 59 0 0 0 19.7-4.8l-3-2a64.3 64.3 0 0 0-30.3-8.8Zm1.5-94.3c-2-1.5-.4-6.2 3.8-5.4 38.4 6.6 18.5 72.7-30.5 36.4-5.8-4.7 1.2-15 7.5-11l2.3 1.7c7.2 5.6 19.2 14 27.8 5 8.2-11.4-3.3-22.1-10.9-26.7Zm26-50c8.2-7 18.4-2 24.4 5.1l1 1.3c1.3 1.4 2.6 3.1 3.4 4.9 6.7-5.7 15.7-9.7 24.3-7a16.7 16.7 0 0 1 11.8 19c-1.7 9.8-9 16.4-17 21.4l-2.3 1.5c-9.5 6-18.4 12.2-26.3 20.6-1.3 1.3-4 1.1-4.9-.7l-.6-1.4-.7-1.5c-5.6-11.9-11.6-23.7-16.5-35.8-3.6-9-4.8-20.5 3.4-27.5ZM105 99.1c6-7 16.1-11.6 24.1-4.9 8.5 7.2 6.8 19 3 28.3-4.5 11-9.8 21.8-15 32.7l-1 2.3-1.4 3c-.9 1.7-3.6 2-5 .6-7.5-8.1-16.1-14.1-25.3-20l-2.8-1.8c-8-5.1-15.7-11.7-17.4-21.7a16.7 16.7 0 0 1 11.8-19c8.6-2.6 17.6 1.3 24.3 7 .8-1.8 2.2-3.6 3.5-5l1.2-1.5Zm9.7-48.5c3 3.8-.2 10-4.5 11-5.2 1.2-10.6.4-15.8 2a49.5 49.5 0 0 0-13.3 6.8c-4.7 3.2-9 6.7-12.9 10.7-2.3 2.4-5.3 8-8.9 8.1-3.6.1 1.2-11 1.6-12 2.9-7 6.8-13.3 11.8-18.9 9.8-11 30.6-22.6 42-7.7Zm109.5-3 2.4.6a58 58 0 0 1 17.7 7.4l.4.3.7.5c6.5 4.8 15.7 14.5 11 23-.2.6-1 .6-1.5.4-6.1-2.7-10.7-8-17.2-10.3l-1.2-.4a64.3 64.3 0 0 0-21-4.2c-4.8 1.5-11.2.3-12.5-5.6v-.3l-.1-.6c-.8-4 .3-9 4.4-11 5.7-2.6 11.2-1.4 16.9.2Z" fill="#000"/></g></g><g transform="translate(279 400)"></g><g transform="translate(179 343)"></g><g transform="translate(203 303)"><path fill-rule="evenodd" clip-rule="evenodd" d="M367.1 98.3c-6.7 9-19.2 12-30.7 11-24.8-2.4-32.6-30.6-33.5-52.6 16.7 4.7-1.4-28.5 55.6-32 20-1.8 14.5 10.3 23.4 19.2-.2 18.6-3.3 38.8-14.8 54.4ZM249 77c-14.7 68.6-95 52.3-103.4-9.6 7.8-5.5 5.7-19 15.4-24 15.3-9.8 34.5-9.4 52-9.1 22.2 1.5 28.5 10.7 40 20.8-.6 6.7-2.2 14.7-4 21.9Zm150-63.8-2.4-.4a39 39 0 0 0-8.3-1.9C359.7 4.7 293.7 13.8 291 38c-9 3-17 .4-27.4.6-8-33.5-146.6-28.8-153.3-8.6-6.5-2-16-1.5-23.3-1.8-15.6-.3-31.3 1-46.6 4.4C11.6 37-27.5 42.5-7.6 78.3c3.5 3.5 9.3.7 9.5-4-6.7-17 8.5-19 20.1-24 29-10.4 58.6-11.8 88.5-8.6 2.3 2.7 5.7 5 9.3 6.2 20 3.3 9.5 18.2 22.2 20.3-2.3 51.9 60.6 80.2 97 46.1 14.6-14.2 18.1-35.3 21.5-54.3a5 5 0 0 0 3.6-2.7c4.3-4.3 7-8.2 15.4-9.4 8.5-1.2 15 1.2 16 1.9l.7 1.3c.4.7 1 1.2 1.5 1.7-8.4 51.6 31.7 84.2 72.2 57.5 17.5-16.6 21.3-41.9 22-64.5a6.8 6.8 0 0 0 3-7.7c-1-4.9 1.6-9 5.8-11.1 5.5-2.8 4.6-12.7-1.8-13.8Z" fill="#000"/></g></g></svg>
      </g>
    </g>
  </g>
</svg>
