<svg xmlns="http://www.w3.org/2000/svg" viewBox="0 0 256 256" width="256" height="256"><defs><linearGradient id="a" x1="0%" y1="100%" x2="100%" y2="0%"><stop offset="0%" stop-color="#BD0816"/><stop offset="100%" stop-color="#FF9900"/></linearGradient></defs><rect width="256" height="256" rx="28" fill="#232F3E"/><g transform="translate(40, 56)"><path d="M88 0L176 48v48l-88 48L0 96V48L88 0z" fill="url(#a)" opacity="0.9"/><path d="M88 16L160 56v40L88 136 16 96V56l72-40z" fill="#232F3E" opacity="0.3"/><path d="M88 36l-52 28v8l52 28 52-28v-8L88 36z" fill="#fff" opacity="0.95"/><path d="M36 72v16l52 28 52-28V72L88 100 36 72z" fill="#fff" opacity="0.7"/><path d="M88 100v16l52-28V72L88 100z" fill="#fff" opacity="0.5"/></g></svg>