<svg xmlns="http://www.w3.org/2000/svg" viewBox="0 0 24 24" width="24" height="24">
  <path fill="#2E6FF9" fill-rule="evenodd" d="M13.7.4l8.4 4.3c1.2.6 2 1.9 2 3.3v2h-3.1v-2c0-.2-.1-.4-.3-.5l-8.4-4.3c-.1-.1-.3-.1-.5 0L3.4 7.5c-.2.1-.3.3-.3.5v2H0v-2c0-1.3.8-2.6 2-3.3L10.4.4c1-.5 2.2-.5 3.3 0zm1 12.3c0-1.5-1.2-2.6-2.6-2.6s-2.6 1.2-2.6 2.6 1.2 2.6 2.6 2.6 2.6-1.2 2.6-2.6zm6 5.5c.2-.1.3-.3.3-.5v-2h3.1v2c0 1.3-.8 2.6-2 3.3l-8.4 4.3c-.5.3-1.1.4-1.7.4s-1.2-.1-1.7-.4L2 21c-1.2-.6-2-1.9-2-3.3v-2h3.1v2c0 .2.1.4.3.5l7.1 3.6v-3.6c-2.4-.7-4.2-2.9-4.2-5.5 0-3.1 2.6-5.8 5.8-5.8s5.8 2.6 5.8 5.8c0 2.6-1.8 4.9-4.2 5.5v3.6l7.1-3.6z"/>
</svg>