<svg xmlns="http://www.w3.org/2000/svg" viewBox="0 0 77 68" fill="none"><path d="M54.5992 20.8044L48.8545 24.1139C48.3439 24.4958 47.9609 25.0049 47.9609 25.6413V30.6055C47.9609 31.242 48.5992 31.6238 49.1098 31.242L55.1099 27.8052C55.3652 27.6779 55.6205 27.6779 55.8758 27.8052L69.0248 35.4424C69.2801 35.5697 69.4078 35.8243 69.4078 36.0789V51.226C69.4078 51.4806 69.2801 51.7352 69.0248 51.8624L55.8758 59.4997C55.6205 59.627 55.3652 59.627 55.1099 59.4997L41.9609 51.8624C41.7055 51.7352 41.5779 51.4806 41.5779 51.226V13.2945C41.5779 12.6581 41.1949 12.0216 40.6843 11.7671L22.1735 1.07497C21.6629 0.693109 20.8969 0.693109 20.3863 1.07497L1.87555 11.7671C1.36491 12.1489 0.981934 12.6581 0.981934 13.2945V34.6787C0.981934 35.3152 1.36491 35.9516 1.87555 36.2062L20.3863 46.8983C20.8969 47.2801 21.6629 47.2801 22.1735 46.8983L27.9182 43.5888C28.4289 43.2069 28.8119 42.6978 28.8119 42.0614V37.0972C28.8119 36.4607 28.1736 36.0789 27.6629 36.4607L21.6629 39.8975C21.4076 40.0248 21.1522 40.0248 20.8969 39.8975L7.74792 32.2603C7.4926 32.133 7.36494 31.8784 7.36494 31.6238V16.3494C7.36494 16.0948 7.4926 15.8403 7.74792 15.713L20.8969 8.07575C21.1522 7.94846 21.4076 7.94846 21.6629 8.07575L35.1949 15.8403V54.2809C35.1949 54.9173 35.5778 55.5538 36.0885 55.8083L54.5992 66.5004C55.1099 66.8823 55.8758 66.8823 56.3865 66.5004L74.8972 55.8083C75.4078 55.4265 75.7908 54.9173 75.7908 54.2809V33.024C75.7908 32.3876 75.4078 31.7511 74.8972 31.4965L56.3865 20.8044C55.8758 20.5499 55.1099 20.5499 54.5992 20.8044Z" fill="#2166AE"/></svg>