<svg xmlns="http://www.w3.org/2000/svg" viewBox="0 0 24 24" width="24" height="24">
  <circle cx="12" cy="12" r="11.1" fill="none" stroke="#222326" stroke-width="1.9"/>
  <path fill="#222326" d="M14.1,16c-.1-.1-.1-.2-.2-.4,0-.2-.1-.3-.1-.5-.2.2-.3.3-.5.4-.2.2-.4.2-.5.3-.2.1-.4.2-.7.2-.2.1-.5.1-.8.1-.5,0-.8-.1-1.2-.2-.4-.2-.7-.3-1-.5-.3-.2-.5-.5-.6-.8-.2-.3-.2-.7-.2-1.1,0-.9.4-1.7,1.1-2.1.7-.5,1.7-.8,3.1-.8h1.3v-.5c0-.5-.2-.8-.4-1-.3-.2-.7-.4-1.2-.4-.5,0-.8.1-1,.3-.2.2-.3.5-.3.8H8.8c0-.4.1-.8.2-1.1.2-.3.4-.6.8-.9.3-.2.7-.5,1.1-.6.5-.2,1-.2,1.6-.2.5,0,1,.1,1.4.2.5.2.8.3,1.2.6.3.2.6.6.8,1,.2.4.3.8.3,1.4v3.8c0,.5,0,.8.1,1.1.1.3.2.6.2.8v.2h-2.4zM11.9,14.4c.2,0,.5,0,.6-.1.2-.1.4-.2.5-.2.2-.1.3-.2.4-.3.1-.1.2-.2.3-.3v-1.5h-1.1c-.4,0-.7,0-.9.1-.2.1-.5.2-.6.3-.2.2-.3.2-.4.5-.1.2-.1.4-.1.5,0,.3.1.5.3.8.2.1.5.2.9.2z"/>
</svg>