<svg xmlns="http://www.w3.org/2000/svg" viewBox="0 0 132 50" width="132" height="50" fill="none">
<path d="M36.9354 21.1765C35.4957 21.1896 34.1281 21.8062 33.1573 22.8794V15.8719H32.0396V31.2898C33.2165 31.7893 34.4774 32.0569 35.755 32.082C37.3309 32.18 38.8784 31.6267 40.0399 30.5477C41.1292 29.4303 41.7106 27.9079 41.6442 26.3425C41.6987 24.9814 41.2287 23.6525 40.3324 22.6356C39.4704 21.6652 38.2272 21.1311 36.9366 21.1777M39.082 29.7207C38.1893 30.6038 36.9769 31.0794 35.7289 31.0388C34.8492 31.0316 33.979 30.8631 33.1596 30.5405V24.1556C34.3401 22.7957 35.5549 22.1158 36.8052 22.1158C37.8033 22.0978 38.7553 22.5412 39.3875 23.3203C40.0908 24.1795 40.4555 25.2694 40.4152 26.3831C40.4567 27.6354 39.9724 28.846 39.082 29.7183M59.9562 21.1753C58.5176 21.1681 57.1879 21.9485 56.4835 23.2152H56.4349V21.3796H55.3172V31.9279H56.4349V24.5344C57.3336 23.0299 58.4762 22.2771 59.8662 22.2771C61.7642 22.2771 62.7125 23.4912 62.7125 25.9218V31.9279H63.8314V25.5012C63.8989 24.3432 63.5177 23.2056 62.7682 22.3273C62.0377 21.5541 61.0135 21.1359 59.9562 21.1777M97.294 31.9291H98.4188V21.4167H97.294V31.9291ZM97.294 17.9129H98.4188V15.9089H97.294V17.9129ZM130.625 22.3488C129.89 21.5696 128.856 21.1502 127.792 21.1992C126.353 21.192 125.025 21.9724 124.32 23.2391H124.272V15.9161H123.161V31.9303H124.272V24.5368C125.202 23.0299 126.354 22.2795 127.702 22.2795C129.604 22.2795 130.549 23.4912 130.549 25.9242V31.9303H131.702V25.4749C131.766 24.3265 131.385 23.1972 130.639 22.3285L130.625 22.35V22.3488ZM51.3946 31.0041C51.2276 31.0041 51.1448 30.8213 51.1448 30.464V23.9321C51.1921 23.1375 50.8464 22.3703 50.2212 21.8851C49.538 21.394 48.7116 21.1478 47.8745 21.1837C46.6656 21.2279 45.4923 21.6174 44.493 22.3058V23.4613C45.381 22.6726 46.4999 22.1994 47.6803 22.1158C49.2314 22.1158 50.0069 22.8351 50.0069 24.2739V25.6123C48.4274 25.6063 46.8705 25.9995 45.4793 26.7547C44.4942 27.2925 43.8856 28.3369 43.8962 29.4662C43.8903 30.1844 44.1887 30.8703 44.7156 31.3519C45.2519 31.8753 45.9765 32.1585 46.7225 32.137C47.9337 32.0904 49.0929 31.6291 50.0069 30.8273C50.014 31.1882 50.0862 31.5443 50.2224 31.8777C50.3337 32.0534 50.5303 32.1513 50.7363 32.137H50.7777C51.5023 32.1107 52.2139 31.9267 52.8604 31.5969V30.5106C52.3868 30.7472 51.8812 30.9133 51.3602 31.0018H51.3946V31.0041ZM50.0057 29.8474C49.2361 30.6528 48.1954 31.1368 47.0895 31.2073C46.5472 31.2288 46.0168 31.0496 45.5965 30.703C45.2247 30.4031 45.0068 29.9502 45.0068 29.4686C45.0341 28.546 45.5704 27.7155 46.3957 27.3164C47.4909 26.7237 48.7317 26.4584 49.9714 26.5528L50.0057 29.8462V29.8474ZM91.2046 30.2334C91.1466 30.5333 91.0033 30.8106 90.7949 31.0328C90.5877 30.8141 90.4445 30.5429 90.3781 30.2477L87.9545 22.8817C87.5448 21.6342 86.9623 21.3677 86.5656 21.3677C86.169 21.3677 85.5722 21.6342 85.1768 22.8817L82.746 30.2274C82.6797 30.5226 82.5364 30.7938 82.3292 31.0125C82.1232 30.789 81.9811 30.5118 81.9196 30.2131L79.1975 21.3689H78.1082L80.9274 30.5285C81.3228 31.8036 81.8994 32.0773 82.3162 32.0844C82.733 32.0844 83.3096 31.8179 83.7051 30.5644L86.1358 23.2187C86.1986 22.9212 86.3466 22.6487 86.5597 22.4348C86.7669 22.6535 86.9102 22.9248 86.9765 23.2187L89.4002 30.5919C89.8157 31.8466 90.3924 32.1119 90.789 32.1119C91.2129 32.1119 91.7883 31.8311 92.1778 30.556L94.997 21.3964H93.9136L91.2058 30.2346L91.2046 30.2334ZM117.119 30.5907C116.904 29.9502 116.819 29.2738 116.869 28.5998V22.2998H119.813V21.3808H116.869V17.8771C116.869 17.8771 115.75 17.8771 115.75 19.3553V21.3665H112.951V22.2854H115.778V29.8892C115.744 30.519 116.001 31.1284 116.473 31.5431C116.958 31.947 117.573 32.1585 118.201 32.1394C118.954 32.1274 119.695 31.9434 120.368 31.5993V30.5202C119.774 30.8297 119.12 31.0065 118.451 31.0388C117.743 31.0388 117.305 30.8775 117.118 30.5907M74.7599 22.0405C73.8044 21.5159 72.7423 21.2255 71.6554 21.192C70.2322 21.1562 68.8599 21.7226 67.8713 22.7551C66.8601 23.7971 66.3143 25.2084 66.3581 26.6663C66.3167 28.129 66.8684 29.5463 67.8855 30.5907C68.8635 31.6291 70.2298 32.2039 71.6495 32.1741C72.7707 32.1681 73.8612 31.7988 74.761 31.1236V31.9506H75.8858V15.9269H74.761V22.0381L74.7599 22.0405ZM74.7599 30.0936C73.9393 30.7018 72.9507 31.0364 71.9336 31.0543C70.7603 31.089 69.6248 30.6289 68.8019 29.7852C67.9624 28.944 67.5054 27.7896 67.5386 26.597C67.5007 25.4486 67.9234 24.3337 68.7119 23.5055C69.4957 22.6977 70.5779 22.258 71.698 22.2938C72.7908 22.3129 73.8529 22.6559 74.7539 23.2821L74.761 30.0948L74.7599 30.0936ZM109.674 22.0405C108.722 21.5171 107.661 21.2267 106.577 21.192C105.153 21.155 103.781 21.7214 102.792 22.7551C101.783 23.7971 101.236 25.2084 101.279 26.6663C101.241 28.1302 101.796 29.5474 102.814 30.5907C103.792 31.6291 105.158 32.2039 106.578 32.1741C107.693 32.1717 108.778 31.8108 109.675 31.144V31.9709H110.807V15.9269H109.675V22.0381L109.674 22.0405ZM109.674 30.0936C108.853 30.7018 107.866 31.0376 106.848 31.0543C105.676 31.0866 104.541 30.6277 103.716 29.7852C102.884 28.9404 102.431 27.7872 102.466 26.597C102.422 25.4474 102.846 24.3313 103.639 23.5055C104.422 22.6977 105.505 22.258 106.625 22.2938C107.716 22.3141 108.775 22.6571 109.674 23.2821V30.0948V30.0936Z" fill="#079CEE"/>
<path d="M19.3325 18.0647C18.3604 17.8544 18.2492 18.3659 18.6375 19.298C20.8386 24.2046 18.8802 28.9906 16.7833 30.182C16.7466 30.0231 16.7289 29.8618 16.7277 29.6992C16.4779 27.3726 15.6029 25.3471 15.0133 25.3471C14.5408 25.3471 14.8321 27.3379 14.7078 29.097C13.9311 28.6345 13.4586 28.3047 12.6251 28.4517C11.4375 28.662 9.84741 31.2061 9.79887 30.8417C9.32645 27.8984 10.4584 23.3705 12.0272 22.8877C12.2699 22.7898 12.7222 23.1686 13.6528 23.5247C14.3952 23.8127 14.3052 23.0622 13.9654 22.7826C12.8572 21.9748 11.3914 21.8684 10.1801 22.5089C7.8192 23.6717 6.75004 28.9703 8.02048 31.1368C8.52013 32.0223 9.39157 32.6306 10.3885 32.7907C11.9715 32.9735 12.4712 32.6365 13.7286 31.0603C13.905 31.2025 14.1122 31.3041 14.3324 31.3543C13.2917 34.6202 9.3963 37.3747 8.55565 36.9051C4.47318 34.1016 5.6051 25.1379 8.4858 17.2808C9.02334 15.8504 9.48629 14.3937 9.87464 12.9143C10.3044 10.8111 7.65225 10.3761 5.83243 11.932C4.50634 13.0673 3.23589 15.6747 2.20107 18.7375C-1.09641 28.4863 0.305464 36.6864 6.20776 38.4729C12.9992 40.5187 16.2351 36.2442 16.7348 31.9482C17.1492 32.002 17.5672 32.0235 17.9851 32.0116C20.0678 31.9697 23.0752 30.8763 23.9632 26.2373C24.6357 22.7336 22.4074 18.6754 19.3313 18.0659" fill="#079CEE"/>
</svg>