<svg xmlns="http://www.w3.org/2000/svg" viewBox="0 0 24 24"><rect width="24" height="24" rx="4" fill="#0A0A0A"/><path d="M6.5 5h3.6c1.6 0 2.85.36 3.55 1.02.7.66 1.05 1.52 1.05 2.48 0 .68-.18 1.28-.52 1.78-.34.5-.82.86-1.44 1.08v.04c.82.18 1.44.56 1.88 1.12.44.56.66 1.26.66 2.1 0 1.08-.38 1.94-1.14 2.58-.76.64-1.78.96-3.06.96H6.5V5zm2.2 5.42h1.62c.76 0 1.34-.16 1.72-.48.38-.32.58-.78.58-1.36 0-.56-.18-1-.56-1.3-.38-.3-.94-.46-1.68-.46H8.7v3.6zm0 1.72v4.04h1.88c.78 0 1.38-.18 1.78-.54.4-.36.6-.86.6-1.5 0-.64-.2-1.14-.62-1.48-.42-.34-1.02-.52-1.82-.52H8.7z" fill="#FDF9EC"/></svg>