<svg role="img" viewBox="0 0 24 24" xmlns="http://www.w3.org/2000/svg" fill="currentColor"><title>Braze</title><path d="M23.994 6.574c0 0-.236-.334-.473-.617c-.051-.061-.116-.13-.264-.034c-.36.248-.762.487-1.254.487c-.383 0-.715-.097-.961-.306c.105-.047.212-.097.319-.161c.59-.318 1.076-.736 1.303-1.009c1.14-1.165.8-2.857-.537-2.857c-1.3 0-2.303 1.273-2.303 2.672c0 .213.025.521.116.848c-.075.037-.609.281-1.231.626c-.572-.44-1.46-.242-1.46-.242c.853-.589 1.98-2.166 2.085-2.356c.079-.105.065-.22-.013-.392c-.096-.207-.19-.244-.322-.244l-2.615 0c-.085 0-.151.039-.176.133c-.026.097-.077.4-.089.507c-.011.117.1.184.213.184l1.944 0l-1.666 2.475c-.011.011-.021.023-.032.037c-.261.375-.617.83-1.067.83c-.287 0-.646-.204-.646-.876c0-.667.271-2.021.458-3.112c.021-.224-.039-.346-.104-.432c-.097-.154-.174-.222-.339-.222l-0.469 0c-.109 0-.177.038-.201.134c-.026.102-.052.338-.058.457c-.222-.437-.611-.741-1.148-.741c-.511 0-.988.188-1.415.617c-1.023.989-.839 2.598-.017 3.512c.083.098.172.188.268.271l-0.188.323c-.072.126-.169.236-.284.323c-.115.087-.247.152-.387.19c-.14.037-.287.046-.43.028c-.145-.019-.284-.066-.409-.138l.202-.347c.271-.43-.226-.922-.476-.631c-.232.23-.488.413-.733.558c-.532-.465-.912-.904-1.12-1.383c-.272-.604-.272-1.279.004-1.981c.133-.317.059-.435-.01-.53c-.098-.156-.177-.23-.35-.23c-.263 0-.664.174-1.526.174c-.188 0-.369-.007-.542-.02c.011-.131.011-.213.015-.243c.007-.131-.043-.216-.176-.216l-.459 0c-.158 0-.199.077-.216.207c-.075.52-.209 2.37-1.178 3.337c-.112.112-.178.151-.178.151c.241-.473.325-1.034.325-1.513c0-1.384-.81-2.269-1.856-2.269c-.3 0-.624.098-.932.286c.146-.836.296-1.638.344-1.937c.041-.231-.036-.338-.137-.481c-.1-.153-.183-.2-.308-.2h-1.546c-.086 0-.154.062-.177.161c-.025.111-.056.285-.063.42c-.008.122.083.179.184.179l1.071 0c-.183 1.066-.51 3.002-.617 3.564c-.131.702-.647 1.437-1.425 1.72c-.103.037-.139.137-.103.245c.038.107.196.418.239.494c.043.076.131.12.219.095c.416-.152.811-.394 1.127-.721c.074-.077.146-.163.215-.255c.366.831 1.108 1.134 1.869 1.134c.904 0 1.855-.312 2.519-1.017c.758-.793 1.082-2.099 1.225-3.076c.188.03.384.051.575.051c.524 0 .943-.099.943-.099c0 0-.519 1.407-.519 2.441c0 1.177.558 1.513 1.158 1.513c.67 0 1.099-.483 1.417-1.039c.083.187.191.368.319.529c.283.296.697.546 1.214.546c.619 0 1.11-.483 1.437-1.042c.065.22.162.413.289.572c.182.187.533.307.879.307c.726 0 1.118-.545 2.158-.545c.143 0 .288.014.435.043c-.505.314-1.003.659-1.321.977c-.9.899-.904 2.037-.343 2.599c.793.795 1.807.42 2.466-.211c.775-.764 1.005-2.078.698-3.088c.561-.298 1.046-.641 1.195-.712c.334.476.852.831 1.798.831c.648 0 1.313-.234 1.844-.641c.071-.067.089-.174.031-.266l0 0zM3.912 6.285c-.209.212-.448.318-.692.318c-.234 0-.437-.063-.589-.191c-.583-.557-.534-1.941.3-2.778c.209-.212.448-.318.692-.318c.234 0 .437.063.589.191c.574.537.533 1.897-.3 2.778zm8.705 1.676c-.295 0-.634-.197-.634-.917c0-.666.277-1.683.634-2.302c.155-.267.379-.521.634-.521c.253 0 .418.134.418.595c0 .013-.001.025-.001.038c-.005.025-.007.044-.007.063l-0.006.229c-.175.899-.688 2.815-1.038 2.815zm9.413 4.951c-.826.826-1.921.673-2.173.419c-.368-.371-.255-1.287.4-1.946c.278-.279.758-.589 1.261-.903c.285.692.178 1.909-.488 2.43zm.786-5.328c.658-.656 1.377-.605 1.377-.27c0 .613-.726 1.314-1.565 1.791c-.05-.146-.068-.307-.068-.534c0-.519.213-1.037.256-1.455c0-.001 0-.001 0-.001z"/></svg>
