<svg xmlns="http://www.w3.org/2000/svg" viewBox="0 0 24 24" fill="none"><path d="M12 2C8.13 2 5 5.13 5 9c0 2.38 1.19 4.47 3 5.74V17a1 1 0 0 0 1 1h6a1 1 0 0 0 1-1v-2.26c1.81-1.27 3-3.36 3-5.74 0-3.87-3.13-7-7-7z" fill="#EB3A6F"/><path d="M9 19h6v1a2 2 0 0 1-2 2h-2a2 2 0 0 1-2-2v-1z" fill="#EB3A6F"/><path d="M12 5.5c-.55 0-1 .45-1 1v2.09c-.72.21-1.32.72-1.65 1.41H8a1 1 0 1 0 0 2h1.35c.33.69.93 1.2 1.65 1.41V15a1 1 0 1 0 2 0v-1.59c.72-.21 1.32-.72 1.65-1.41H16a1 1 0 1 0 0-2h-1.35c-.33-.69-.93-1.2-1.65-1.41V6.5c0-.55-.45-1-1-1z" fill="white"/></svg>