<svg role="img" viewBox="0 0 24 24" xmlns="http://www.w3.org/2000/svg">
  <title>Checkout.com</title>
  <!-- Checkout.com brand mark: navy "C" swirl and grey accent, derived from official SVG -->
  <path fill="#21325B" d="M4.988 11.271c0-.13.026-.258.076-.377s.124-.228.217-.319.204-.163.326-.212.253-.074.385-.073l1.716.005c.263 0 .515.104.701.29s.291.437.291.699v6.428a9.2 9.2 0 0 0 1.183-.294.872.872 0 0 0 .549-.499v-7.758a.976.976 0 0 1 .978-.975h1.716c.259 0 .508.103.691.285s.286.431.286.689v7.118s.42-.166.836-.345a.893.893 0 0 0 .556-.862V8.625a.975.975 0 0 1 .978-.975h1.716c.259 0 .508.103.691.285s.286.431.286.689v7.091c1.44-1.023 2.88-2.339 3.979-3.82a3.1 3.1 0 0 0 .578-1.31 3.092 3.092 0 0 0-.225-1.68 11.559 11.559 0 0 0-5.748-6.285 11.632 11.632 0 0 0-8.434-.775 11.585 11.585 0 0 0-6.782 5.274A11.52 11.52 0 0 0 .499 14.7c.18 1.677.739 3.293 1.627 4.727.141.243.34.447.579.593s.512.232.789.247c.33-.029.75-.07 1.246-.13a.972.972 0 0 0 .87-.997l-.001-6.356-.001-.513z"/>
  <path fill="#8B8B8B" d="M4.95 21.165a11.607 11.607 0 0 0 10.906.513 11.533 11.533 0 0 0 5.781-6.232 11.495 11.495 0 0 0 .362-7.538c-4.572 6.627-12.809 10.132-17.05 13.257z"/>
</svg>
