<svg xmlns="http://www.w3.org/2000/svg" viewBox="0 0 61 67" width="24" height="24">
  <title>Codat</title>
  <path d="M23.2745 0.0457631L6.13209 11.8458C5.96388 11.9531 5.96388 12.1983 6.13209 12.3209L12.7383 16.857C12.83 16.9183 12.9676 16.9183 13.0594 16.857L23.6109 9.59307C23.6874 9.54709 23.7332 9.45514 23.7332 9.3632V0.290959C23.7332 0.0610878 23.4733 -0.0768347 23.2745 0.0457631Z" fill="#482DEB"/>
  <path d="M60.2201 41.0394L37.0679 56.9924C36.9915 57.0537 36.9456 57.1304 36.9456 57.2223V66.2945C36.9456 66.5244 37.2056 66.6623 37.3891 66.5244L60.5412 50.5714C60.6177 50.5101 60.6635 50.4334 60.6635 50.3415V41.2693C60.6635 41.0394 60.4036 40.9015 60.2201 41.0394Z" fill="#482DEB"/>
  <path d="M47.6041 40.3958C47.6959 40.4571 47.8335 40.4571 47.9253 40.3958L54.5161 35.8596C54.6843 35.7524 54.6843 35.5072 54.5161 35.3846L37.3737 23.5845C37.1902 23.4466 36.9303 23.5845 36.9303 23.8144V32.8866C36.9303 32.9786 36.9762 33.0705 37.0526 33.1165L47.6041 40.3958Z" fill="#482DEB"/>
  <path d="M0.443469 17.5006C0.259965 17.378 0 17.5006 0 17.7305V26.8181C0 26.91 0.0458761 27.002 0.122336 27.0479L23.2745 43.001C23.458 43.1389 23.718 43.001 23.718 42.7711V33.6989C23.718 33.6069 23.6721 33.515 23.5956 33.469L0.443469 17.5006Z" fill="#482DEB"/>
</svg>
