<svg xmlns="http://www.w3.org/2000/svg" viewBox="16 16 200 200" width="24" height="24">
  <title>CoinGecko</title>
  <path d="m212.16 114.47a94.91 94.91 0 1 1 -95.34-94.49 94.92 94.92 0 0 1 95.34 94.49z" fill="#8dc63f"/>
  <path d="m205.01 114.49a87.76 87.76 0 1 1 -88.16-87.36 87.76 87.76 0 0 1 88.16 87.36z" fill="#f9e988"/>
  <path d="m118.85 32.82a48 48 0 0 1 16.87 0 51.33 51.33 0 0 1 16.11 5.4c5 2.75 9.33 6.48 13.63 10s8.59 7.08 12.67 11a64.24 64.24 0 0 1 10.8 13.05 74 74 0 0 1 7.57 15.25 69.29 69.29 0 0 1 3.11 33.37h-.56a156.51 156.51 0 0 0 -8.22-31.36 122.93 122.93 0 0 0 -6.45-14.64 145.65 145.65 0 0 0 -8.54-13.7 49.85 49.85 0 0 0 -11.46-11.57c-4.45-3.17-9.57-5.23-14.53-7.18s-9.92-3.89-15.07-5.38-10.42-2.6-15.91-3.68z" fill="#fff"/>
  <path d="m161.75 83.49c-6.37-1.85-13-4.46-19.66-7.1-.38-1.68-1.87-3.77-4.87-6.32-4.37-3.79-12.57-3.69-19.66-2-7.82-1.84-15.55-2.49-23-.71-60.65 16.7-26.25 57.53-48.53 98.53 3.17 6.72 37.34 46 86.78 35.43 0 0-16.9-40.63 21.25-60.13 30.95-15.87 53.32-45.25 7.69-57.7z" fill="#8bc53f"/>
  <path d="m169.24 110.2a3.68 3.68 0 1 1 -3.69-3.65 3.67 3.67 0 0 1 3.69 3.65z" fill="#fff"/>
  <path d="m117.56 68.05c4.42.32 20.41 5.54 24.53 8.34-3.41-10-15-11.3-24.53-8.34z" fill="#009345"/>
  <circle cx="104.77" cy="93.27" r="17" fill="#fff"/>
  <circle cx="104.8" cy="93.42" r="11.94" fill="#58595b"/>
  <path d="m182.99 117.68c-13.75 9.69-29.39 17-51.57 17-10.38 0-12.48-11-19.34-5.62-3.55 2.79-16 9-25.95 8.56s-26-6.29-30.45-27.44c-1.77 21.15-2.68 36.73-10.62 54.59 15.82 25.33 53.53 44.86 87.75 36.46-3.67-25.68 18.77-50.84 31.42-63.71 4.78-4.87 14-12.83 18.76-19.88z" fill="#8bc53f"/>
  <path d="m182.45 118.32a61.75 61.75 0 0 1 -14.52 9.31 92.3 92.3 0 0 1 -16.3 5.94c-5.6 1.45-11.46 2.54-17.39 2s-12-2.56-15.91-7l.19-.22c4.84 3.13 10.37 4.23 15.89 4.39a75 75 0 0 0 16.71-1.39 91.3 91.3 0 0 0 16.24-5 61 61 0 0 0 14.91-8.24z" fill="#58595b"/>
</svg>