<svg xmlns="http://www.w3.org/2000/svg" viewBox="0 0 24 24" width="24" height="24">
  <defs>
    <linearGradient id="crisp-grad" x1="50%" x2="50%" y1="83.85%" y2="31.56%">
      <stop offset="0" stop-color="#003AB8"/>
      <stop offset="1" stop-color="#3770EC"/>
    </linearGradient>
  </defs>
  <path fill="url(#crisp-grad)" transform="scale(0.5) translate(0.25, 5.5)" d="M45.34,2.77 C45.34,2.78 45.34,2.79 45.34,2.79 L47.51,23.67 C47.68,25.31 46.49,26.78 44.86,26.96 L31.93,28.42 L27.17,35.98 C26.72,36.68 25.8,36.89 25.1,36.44 C25,36.38 24.91,36.31 24.82,36.22 L18.66,29.92 L5.49,31.41 C3.85,31.59 2.36,30.41 2.18,28.76 C2.18,28.75 2.17,28.74 2.17,28.72 L0.09,7.79 C-0.07,6.15 1.11,4.69 2.75,4.51 L42.02,0.12 C43.67,-0.06 45.15,1.12 45.34,2.77 Z"/>
</svg>