<svg xmlns="http://www.w3.org/2000/svg" viewBox="0 0 16 16" width="24" height="24">
  <title>DeepSource</title>
  <path d="M2 1V15H6.44706C7.98431 15 9.30882 14.7002 10.4206 14.1006C11.5324 13.5009 12.3902 12.6797 12.9941 11.6369C13.598 10.581 13.9 9.36871 13.9 8C13.9 6.63128 13.598 5.41899 12.9941 4.36313C12.3902 3.30726 11.5324 2.48603 10.4206 1.89944C9.30882 1.29981 7.98431 1 6.44706 1H2Z" fill="#121317"/>
  <path d="M4.48505 3.7998H9.37936C9.79295 3.7998 10.1375 4.18153 10.1375 4.63969C10.1375 5.09785 9.79295 5.4798 9.37936 5.4798H4.48505V3.7998Z" fill="#33CB9A"/>
  <path d="M4.48505 10.5198H10.2955C10.6962 10.5198 11.03 10.9015 11.03 11.3597C11.03 11.8178 10.6962 12.1998 10.2955 12.1998H4.48505V10.5198Z" fill="#D22F43"/>
  <path d="M4.48505 7.15991H7.64651C8.03166 7.15991 8.35255 7.54164 8.35255 7.9998C8.35255 8.45796 8.03166 8.83991 7.64651 8.83991H4.48505V7.15991Z" fill="#F3CB51"/>
</svg>
