<svg xmlns="http://www.w3.org/2000/svg" viewBox="0 0 66 53" fill="none"><g clip-path="url(#a)"><path d="M6.052 7.041H.5v36.982h5.552c7.448 0 10.55-1.854 10.55-9.851V16.883c0-8.092-3.1-9.85-10.55-9.85v.007zm5.924 27.131c0 4.53-1.386 5.223-5.88 5.223H5.12V11.66h.975c4.488 0 5.88.693 5.88 5.223v17.289z" fill="#262626"/><path d="M18.983 26.219v3.698h6.938v-3.698h-6.938z" fill="#262626"/><path d="M28.562 13.978v30.044h4.627V13.978h-4.627z" fill="#262626"/><path d="M41.382 7.041h-5.552v36.982h5.552c7.448 0 10.554-1.854 10.554-9.851V16.883c0-8.092-3.1-9.85-10.554-9.85v.007zm5.924 27.131c0 4.53-1.386 5.223-5.88 5.223h-.975V11.66h.975c4.488 0 5.88.693 5.88 5.223v17.289z" fill="#262626"/><path d="M30.876 11.228a2.538 2.538 0 1 0 0-5.075 2.538 2.538 0 0 0 0 5.075z" fill="#FF882E"/><path d="M36.191 4.027a1.398 1.398 0 1 0 0-2.795 1.398 1.398 0 0 0 0 2.795z" fill="#FF882E"/><path d="M42.198 2.096a1.048 1.048 0 1 0 0-2.096 1.048 1.048 0 0 0 0 2.096z" fill="#FF882E"/><path d="M47.847 3.147a1.048 1.048 0 1 0 0-2.096 1.048 1.048 0 0 0 0 2.096z" fill="#FF882E"/><path d="M55.907 53c-1.18 0-2.178-.376-2.899-.648l-.266-.098c-1.205-.438-2.37-.876-3.457-1.303a1.244 1.244 0 0 1 .857-2.338c1.07.42 2.216.85 3.407 1.282l.29.06c.806.304 1.722.651 2.727.426.898-.202 1.456-.545 1.749-1.075.275-.498.189-.85 0-1.487-.16-.533-.354-1.196-.1-1.916.283-.805.86-1.199 1.282-1.486.387-.266.467-.337.511-.562.098-.498-.18-.758-.277-.832-.44-.16-.753-.575-.771-1.06-.021-.575.375-1.079.936-1.194.1-.02.405-.083.65-.332.127-.127.346-.393.366-.752.018-.328-.157-.598-.444-.997-.319-.441-.912-1.265-.363-2.188.434-.732 1.353-1.114 2.092-1.421.153-.066.292-.122.398-.172.444-.22.638-.462.544-1.241-.03-.234-.14-.42-.21-.522-1.023-1.267-1.938-2.54-2.836-3.89-.792-1.197-1.324-2.076-1.531-3.326-.21-1.252.426-3.54.503-3.798.783-2.665.818-4.693-1.088-9.013-1.438-3.257-3.66-5.487-5.27-6.783a1.23 1.23 0 0 1-.177-1.65 1.238 1.238 0 0 1 1.652-.177c2.6 2.093 4.653 4.743 5.945 7.663 1.958 4.438 2.248 7.02 1.193 10.62-.277.945-.532 2.307-.457 2.754.121.731.399 1.244 1.17 2.413.869 1.306 1.755 2.538 2.71 3.763l.023.033c.245.337.556.894.647 1.625.254 2.126-.857 3.148-1.832 3.63-.142.071-.331.151-.525.237-.147.062-.378.157-.588.258.352.503.807 1.267.745 2.31-.047.843-.42 1.655-1.049 2.282l-.16.149c.311.624.404 1.339.266 2.055-.234 1.193-1.023 1.732-1.493 2.052-.2.136-.334.231-.378.302.009.104.077.326.124.492.213.713.568 1.91-.195 3.29-.623 1.131-1.731 1.88-3.288 2.23-.391.091-.784.13-1.16.13z" fill="#FF882E"/></g><defs><clipPath id="a"><rect width="65" height="53" fill="white" transform="translate(.5)"/></clipPath></defs></svg>