<svg xmlns="http://www.w3.org/2000/svg" viewBox="84 7 21 12" width="64" height="36" fill="none"><path d="M103.759 11.8532C103.11 11.0105 102.155 10.457 101.101 10.3123C100.973 10.2919 100.843 10.2809 100.713 10.2793C100.583 10.2793 100.447 10.2673 100.355 10.2713H99.7351H99.1541C99.0337 10.2713 98.9182 10.3191 98.8331 10.4043C98.7479 10.4894 98.7001 10.6049 98.7001 10.7253V11.4612C98.7001 11.5816 98.7479 11.6971 98.8331 11.7823C98.9182 11.8674 99.0337 11.9152 99.1541 11.9152H99.7351H100.355C100.442 11.9143 100.529 11.918 100.616 11.9262C100.693 11.9306 100.769 11.9416 100.844 11.9592C101.443 12.0758 101.973 12.4226 102.32 12.9252C102.655 13.4178 102.797 14.0164 102.72 14.6071C102.643 15.2032 102.346 15.7488 101.886 16.136C101.652 16.333 101.38 16.4785 101.086 16.563C100.757 16.6509 100.415 16.6847 100.075 16.663L97.5942 16.673C95.9402 16.681 94.2863 16.687 92.6314 16.673L90.1495 16.664H89.5296H89.0645L88.9496 16.656C88.6438 16.6355 88.3452 16.555 88.0706 16.419C87.5324 16.1383 87.1235 15.6604 86.9297 15.0851C86.7367 14.5222 86.7552 13.9084 86.9817 13.3581C87.2092 12.7935 87.65 12.3412 88.2086 12.0992C88.4955 11.9777 88.804 11.9158 89.1156 11.9172H90.3565C91.6825 11.9172 92.8784 11.9052 94.1563 11.9172L92.6704 13.5571C92.6373 13.5939 92.6119 13.6371 92.5958 13.6839C92.5797 13.7307 92.5733 13.7803 92.5768 13.8297C92.5804 13.8791 92.5939 13.9273 92.6165 13.9713C92.6391 14.0154 92.6704 14.0544 92.7084 14.0861L93.1924 14.4861C93.2709 14.551 93.3718 14.5822 93.4732 14.5728C93.5746 14.5634 93.6681 14.5143 93.7333 14.4361L96.1072 11.5782C96.2187 11.4442 96.2797 11.2755 96.2797 11.1013C96.2797 10.927 96.2187 10.7583 96.1072 10.6243L93.7333 7.76643C93.7011 7.7276 93.6616 7.6955 93.6169 7.67198C93.5723 7.64845 93.5235 7.63396 93.4732 7.62932C93.423 7.62467 93.3723 7.62996 93.3241 7.64491C93.2759 7.65986 93.2312 7.68415 93.1924 7.71641L92.7084 8.11638C92.6703 8.14806 92.639 8.18715 92.6164 8.23125C92.5938 8.27535 92.5804 8.32357 92.577 8.37299C92.5735 8.42242 92.5801 8.47202 92.5963 8.51883C92.6125 8.56565 92.6381 8.60871 92.6714 8.64538L94.1573 10.2863C92.8834 10.2943 91.6885 10.2863 90.3575 10.2863H89.1165C88.5986 10.2808 88.084 10.3692 87.5976 10.5473C86.598 10.9178 85.782 11.6631 85.3227 12.6252C85.0986 13.1099 84.9743 13.6347 84.9571 14.1685C84.94 14.7022 85.0303 15.2339 85.2228 15.732C85.6144 16.7253 86.3818 17.524 87.3586 17.9549C87.835 18.1706 88.349 18.2912 88.8716 18.3099L89.0656 18.3179H89.5316H90.1515L92.6334 18.3089C94.2873 18.2979 95.9413 18.3089 97.5962 18.3089L100.077 18.3189C100.564 18.3433 101.051 18.2999 101.526 18.1899C102.034 18.0576 102.513 17.8314 102.938 17.5229C103.367 17.2106 103.73 16.8155 104.005 16.361C104.28 15.9064 104.461 15.4016 104.538 14.8761C104.619 14.3457 104.591 13.8045 104.457 13.285C104.324 12.7655 104.086 12.2784 103.759 11.8532Z" fill="#5457FF"/></svg>