<svg xmlns="http://www.w3.org/2000/svg" viewBox="0 0 17 28" fill="none">
<path d="M0.248047 0.0917969V4.83077L9.63691 7.88836L16.9054 5.52072V5.51581L0.248047 0.0917969Z" fill="#8BD3E6"/>
<path d="M0.248047 6.20459V10.9423L0.251715 10.9436L7.52875 8.57469L0.248047 6.20459Z" fill="#8BD3E6"/>
<path d="M9.63672 13.9997L16.9052 11.6333V11.6284L14.8044 10.9434L7.52734 13.3135L9.63672 13.9997Z" fill="#8BD3E6"/>
<path d="M9.63672 20.1125L16.9052 17.7449V17.74L14.8044 17.0562L7.52734 19.425L9.63672 20.1125Z" fill="#8BD3E6"/>
<path d="M5.41938 14L0.248047 15.6838V17.0552L0.251715 17.0564L7.52753 14.6863L5.41938 14Z" fill="#8BD3E6"/>
<path d="M0.248047 17.0574V21.7964L7.52875 19.425L0.251715 17.0562L0.248047 17.0574Z" fill="#343741"/>
<path d="M7.52832 14.6863L14.8041 17.0564L16.905 16.3713V16.3664L9.63647 14L7.52832 14.6863Z" fill="#343741"/>
<path d="M16.9052 16.3674V11.6333L9.63672 13.9997L16.9052 16.3674Z" fill="#0084D4"/>
<path d="M0.251953 17.0561L7.52899 19.425L14.8048 17.0561L7.52899 14.6873L0.251953 17.0561Z" fill="#0084D4"/>
<path d="M0.248047 23.1692V27.9081L16.9054 22.4841V22.4792L9.63691 20.1128L0.248047 23.1692Z" fill="#343741"/>
<path d="M16.9052 22.4792V17.7451L9.63672 20.1128L16.9052 22.4792Z" fill="#0084D4"/>
<path d="M7.52832 8.5747L14.8041 10.9436L16.905 10.2598V10.2548L9.63647 7.88843L7.52832 8.5747Z" fill="#343741"/>
<path d="M7.52875 13.3135L0.251715 10.9434L0.248047 10.9446V12.3159L5.41938 13.9997L7.52875 13.3135Z" fill="#343741"/>
<path d="M16.9052 10.2548V5.52075L9.63672 7.8884L16.9052 10.2548Z" fill="#0084D4"/>
<path d="M0.251953 10.9436L7.52899 13.3137L14.8048 10.9436L7.52899 8.57471L0.251953 10.9436Z" fill="#0084D4"/>
<path d="M0.248047 12.3159V15.6836L5.41938 13.9997L0.248047 12.3159Z" fill="#0084D4"/>
</svg>
