<svg xmlns="http://www.w3.org/2000/svg" viewBox="0 0 64 64" fill="none">
<rect width="64" height="64" rx="12" fill="#1f2023"/>
<g transform="translate(8, 12) scale(0.75)">
<path d="M13.5 12.8c-1.8 0.9-3.3 1.5-6.9 1.5-3.7 0-6.3 2.1-6.3 5.3 0 1.9 0.8 3.3 2.6 4.2-1.1 0.7-1.7 1.7-1.7 2.7 0 1.5 1.3 2.9 4.1 2.9h2.6c1.8 0 2.9 0.7 2.9 1.9 0 1.4-1.2 2.2-4.3 2.2-3.2 0-3.9-0.7-3.9-2.3h-2.8c0 3 1.5 4.6 6.7 4.6 4.8 0 7.5-1.7 7.5-4.7 0-2.4-2.3-4.2-5.5-4.2h-2.6c-1.5 0-1.9-0.5-1.9-1.1 0-0.5 0.3-1.0 0.7-1.2 0.6 0.2 1.2 0.2 2.1 0.2 3.7 0 5.9-2.1 5.9-5.1 0-1.8-0.9-3.0-2.7-3.8 1.8 0 3.2-0.1 4.4-0.5z m-6.9 3.7c1.9 0 2.9 1.0 2.9 3.1 0 2.0-1.0 3.2-2.9 3.2-2.0 0-3.1-1.3-3.1-3.1 0-1.8 1.0-3.1 3.1-3.2z" fill="#ffffff"/>
<path d="M20.6 28.2h10.0c0-0.4 0.1-0.9 0.1-1.4 0-4.7-2.5-7.5-6.5-7.5-4.3 0-6.9 3.4-6.9 7.9 0 4.7 2.6 7.9 7.2 7.9 2.1 0 4.1-0.7 5.5-1.9l-1.4-1.9c-1.3 0.8-2.5 1.3-3.9 1.3-2.2 0-3.9-1.3-4.1-4.4z m3.6-6.6c2.1 0 3.3 1.6 3.4 4.4h-7.0c0.2-3.0 1.6-4.4 3.6-4.4z" fill="#ffffff"/>
<path d="M40.5 33.9l-1.2-2.1c-0.8 0.4-1.7 0.7-2.8 0.7-1.8 0-2.6-0.8-2.6-2.4v-8.1h4.7l0.4-2.3h-5.1v-3.7l-3.2 0.4v3.4h-3.3v2.3h3.3v8.2c0 3.0 1.8 4.9 5.3 4.9 1.7 0 3.3-0.5 4.4-1.2z" fill="#ffffff"/>
</g>
<circle cx="52" cy="48" r="4.5" fill="#fc5378"/>
</svg>
