<svg xmlns="http://www.w3.org/2000/svg" viewBox="0 0 48 60" width="48" height="60" fill="none"><path d="M38.681 44.8717C41.771 39.9988 43.5698 33.7265 43.5698 27.3207V24.2119C43.5698 23.0183 43.0147 21.9321 42.0475 21.2311L39.8426 19.601C39.267 21.6123 38.1979 23.7643 36.727 25.51C38.9493 28.9191 40.1222 32.8603 40.1222 36.953C40.1222 39.5475 39.5995 42.2761 38.681 44.8717Z" fill="#020D26"/><path d="M24.0019 55.5891C25.8162 55.5866 27.9136 54.7813 30.3426 53.1552C34.5231 49.7359 37.648 42.84 37.648 36.953C37.648 33.5285 36.7167 30.2253 34.9502 27.3284C32.2262 29.7127 28.7807 31.1074 25.0694 31.331C26.3466 33.9956 27.0399 37.1249 27.0399 40.3298C27.0399 45.8141 24.8746 51.0672 21.06 54.9813C22.1141 55.384 23.0937 55.5881 24.0019 55.5891Z" fill="#020D26"/><path d="M4.42985 24.212V27.3207C4.42985 29.8626 4.71407 32.3829 5.24858 34.8035L10.9982 25.072C9.71951 23.4307 8.76971 21.5673 8.19099 19.5759L5.96196 21.2234C4.98441 21.9315 4.42985 23.0183 4.42985 24.212Z" fill="#020D26"/><path fill-rule="evenodd" clip-rule="evenodd" d="M26.1689 16.2028C25.3902 17.1455 24.7807 17.8834 23.9993 17.8834C23.2181 17.8834 22.6089 17.1458 21.8306 16.2033C21.5096 15.8147 21.1598 15.3911 20.7573 14.9701C18.2774 12.3392 15.1073 11.6807 12.8022 12.5935C10.8333 13.3732 9.88808 15.1732 10.1497 17.4679C10.6369 20.326 11.9629 22.9246 14.01 24.9528C16.6261 27.5453 20.1374 28.9728 23.9993 28.9728C27.8617 28.9728 31.3731 27.5453 33.9891 24.9528C36.0357 22.9246 37.3617 20.326 37.8495 17.4679C38.1105 15.1732 37.1659 13.3732 35.1964 12.5935C32.8923 11.6807 29.7222 12.3392 27.2419 14.9701C26.8396 15.3909 26.4898 15.8143 26.1689 16.2028ZM14.0535 18.2541C14.0535 16.887 14.9231 15.7747 15.9921 15.7747C17.0611 15.7747 17.9302 16.887 17.9302 18.2541C17.9302 19.6217 17.0611 20.7335 15.9921 20.7335C14.9231 20.7335 14.0535 19.6217 14.0535 18.2541ZM23.994 19.8852C24.9135 19.8852 25.5739 20.5457 25.6381 21.5286C25.6479 21.6749 25.6525 21.8248 25.6525 21.9742C25.6525 23.5399 25.3359 24.8164 24.5938 26.2429L24.5655 26.2976C24.4581 26.5095 24.2957 26.8287 23.994 26.8287C23.6937 26.8287 23.5314 26.5109 23.4234 26.2996L23.4225 26.2976L23.3947 26.2429C22.652 24.8164 22.336 23.5399 22.336 21.9742C22.336 21.8248 22.3406 21.6749 22.3503 21.5286C22.4141 20.5457 23.075 19.8852 23.994 19.8852ZM32.6361 16.3159C33.498 16.4346 34.2484 17.0583 34.5039 17.8672C34.6457 18.3169 34.527 18.761 34.2022 18.9979C33.8881 19.2261 33.4441 19.1995 33.0144 18.9273C32.2378 18.4356 31.5029 18.4781 30.6302 19.0665L30.5572 19.1171L30.5557 19.1182C30.3944 19.2322 30.1751 19.3873 29.9384 19.3873L29.9324 19.3872C29.9302 19.3871 29.9279 19.387 29.9255 19.3868C29.7256 19.3821 29.5493 19.3115 29.4172 19.1826C29.224 18.9948 29.1083 18.6474 29.3627 18.2376C30.2092 16.8689 31.4324 16.1501 32.6361 16.3159Z" fill="#020D26"/><path fill-rule="evenodd" clip-rule="evenodd" d="M29.4745 1.23579C31.362 -0.401026 34.2018 -0.42058 36.0947 1.22918L36.1021 1.23566L36.1094 1.24222C41.7163 6.23237 42.4982 12.2894 42.3337 15.9492L44.6724 17.6779C46.7569 19.1921 48 21.6347 48 24.2119V27.3207C48 37.3042 44.0827 47.1772 37.5602 53.058C32.606 57.5251 28.2478 59.9926 24.0057 60H23.999C19.7529 59.9926 15.3948 57.5253 10.4398 53.058C3.91797 47.1773 0 37.3043 0 27.3207V24.2119C0 21.6322 1.24559 19.1906 3.33738 17.6707L5.67002 15.9464C5.4966 12.4079 6.14966 6.38197 11.8854 1.24694L11.8948 1.23853L11.9043 1.23025C13.7968 -0.419312 16.6371 -0.402323 18.5261 1.23583C20.0429 2.5517 21.9869 3.27647 23.9997 3.27647C26.0131 3.27647 27.9571 2.55182 29.4745 1.23579ZM40.3617 16.8483L43.5457 19.2019C45.141 20.3577 46.099 22.2334 46.099 24.2119V27.3207C46.099 36.8721 42.3384 46.1969 36.2839 51.6556C31.4085 56.0517 27.5055 58.1018 24.0019 58.108C20.4941 58.1018 16.5911 56.0517 11.7152 51.6556C5.66129 46.1969 1.90015 36.8721 1.90015 27.3207V24.2119C1.90015 22.2334 2.85868 20.3577 4.46326 19.1947L7.64363 16.8437C7.33474 13.8711 7.418 7.79068 13.1558 2.65375C14.3246 1.63506 16.0967 1.63865 17.2773 2.66245C19.1404 4.27874 21.5277 5.16849 23.9993 5.16849C26.4715 5.16849 28.8588 4.27874 30.7224 2.66245C31.9025 1.63916 33.6741 1.63455 34.8423 2.65273C40.4198 7.61672 40.6865 13.7304 40.3617 16.8483Z" fill="#020D26"/></svg>