<svg xmlns="http://www.w3.org/2000/svg" viewBox="0 0 256 256" width="256" height="256">
  <!-- White background -->
  <rect width="256" height="256" fill="#ffffff"/>

  <!-- Cloud shape in #4285F4 blue -->
  <!-- Main cloud body -->
  <path d="M188 108c-1.3 0-2.6 0.1-3.9 0.2C180.5 88.4 163.2 74 142.5 74c-14.4 0-27.2 6.6-35.6 16.9C102.5 88.7 97.8 88 93 88c-22.1 0-40 17.9-40 40 0 21.8 17.5 39.5 39.2 40H188c17.7 0 32-14.3 32-32s-14.3-32-32-32z" fill="#4285F4"/>

  <!-- Container squares overlay on cloud - representing Cloud Run containers -->
  <!-- Top-left container -->
  <rect x="88" y="104" width="30" height="30" rx="4" fill="white" opacity="0.9"/>
  <!-- Top-right container -->
  <rect x="126" y="104" width="30" height="30" rx="4" fill="white" opacity="0.9"/>
  <!-- Bottom-left container -->
  <rect x="88" y="140" width="30" height="30" rx="4" fill="white" opacity="0.9"/>
  <!-- Bottom-right container -->
  <rect x="126" y="140" width="30" height="30" rx="4" fill="white" opacity="0.9"/>

  <!-- Container icons - small squares inside each container box -->
  <!-- Top-left inner -->
  <rect x="95" y="111" width="16" height="16" rx="2" fill="#4285F4"/>
  <!-- Top-right inner -->
  <rect x="133" y="111" width="16" height="16" rx="2" fill="#34A853"/>
  <!-- Bottom-left inner -->
  <rect x="95" y="147" width="16" height="16" rx="2" fill="#34A853"/>
  <!-- Bottom-right inner -->
  <rect x="133" y="147" width="16" height="16" rx="2" fill="#4285F4"/>

  <!-- Green accent bar at bottom representing "run" / execution -->
  <rect x="72" y="188" width="112" height="8" rx="4" fill="#34A853"/>
</svg>
