<svg fill="#430098" role="img" viewBox="0 0 24 24" xmlns="http://www.w3.org/2000/svg"><title>Heroku</title><path d="M20.61 0H3.39C2.189 0 1.23.96 1.23 2.16v19.681c0 1.198.959 2.159 2.16 2.159h17.22c1.2 0 2.159-.961 2.159-2.159V2.16C22.77.96 21.811 0 20.61 0zm.96 21.841c0 .539-.421.96-.96.96H3.39c-.54 0-.96-.421-.96-.96V2.16c0-.54.42-.961.96-.961h17.22c.539 0 .96.421.96.961v19.681zM6.63 20.399L9.33 18l-2.7-2.4v4.799zm9.72-9.719c-.479-.48-1.379-1.08-2.879-1.08-1.621 0-3.301.421-4.5.84V3.6h-2.4v10.38l1.68-.78s2.76-1.26 5.16-1.26c1.2 0 1.5.6 1.5 1.2v7.26h2.4v-7.26c.001-.78-.12-1.62-.961-2.46zM13.35 7.199h2.4c1.08-1.26 1.62-2.521 1.8-3.6h-2.399c-.241 1.08-.841 2.34-1.801 3.6z"/></svg>