<svg xmlns="http://www.w3.org/2000/svg" viewBox="0 0 16 16" width="24" height="24">
<path d="M7.375 0.1875C7.75 0.0625 8.21875 0.0625 8.59375 0.1875L14.8438 2.5625C15.5312 2.8125 16 3.46875 16 4.21875V11.8125C16 12.5625 15.5312 13.1875 14.8438 13.4688L8.59375 15.8438C8.21875 15.9688 7.75 15.9688 7.375 15.8438L1.125 13.4688C0.4375 13.1875 0 12.5625 0 11.8125V4.21875C0 3.46875 0.4375 2.8125 1.125 2.5625L7.375 0.1875ZM8.0625 1.59375C8.03125 1.59375 7.9375 1.59375 7.90625 1.59375L1.96875 3.84375L8 6.21875L14 3.84375L8.0625 1.59375ZM1.65625 12.0625L7.25 14.1875V7.53125L1.5 5.28125V11.8125C1.5 11.9375 1.5625 12.0312 1.65625 12.0625ZM8.75 14.1875L14.3125 12.0625C14.4062 12.0312 14.5 11.9375 14.5 11.8125V5.28125L8.75 7.53125V14.1875Z" fill="#FF5833"/>
</svg>