<svg xmlns="http://www.w3.org/2000/svg" viewBox="0 0 90 90"><g fill="none" fill-rule="evenodd"><path fill="#0FB2FF" d="M0 0h90v90H0z"/><g fill-rule="nonzero"><path fill="#FFF" d="m28 61.56 33.988-.003V75H28z"/><path d="M41.542 62.243c-3.887-.521-6.89-1.87-9.095-4.084-2.28-2.287-3.775-5.654-4.376-9.846l-.056-.391.55-.11c1.614-.321 10.578-2.018 10.662-2.018.055 0 .156.424.225.942.592 4.425 3.032 6.873 6.368 6.388 2.07-.3 3.46-1.353 4.076-3.086l.25-.7.028-17.169L50.202 15H62l-.042 16.64c-.045 17.942-.036 17.626-.61 20.203-1.445 6.472-5.41 9.673-12.955 10.456-1.429.148-5.581.114-6.85-.056Z" fill="#050000"/></g></g></svg>