<svg xmlns="http://www.w3.org/2000/svg" viewBox="0 0 36 21" width="24" height="24">
<path fill-rule="evenodd" clip-rule="evenodd" d="M8.66021 14.8448L3.69117 9.853C2.84682 9.00473 1.47787 9.00473 0.633258 9.853C-0.211086 10.7012 -0.211086 12.0764 0.633258 12.9249L7.13125 19.4527C7.9756 20.3009 9.34486 20.3009 10.1892 19.4527L16.3053 13.3083L13.2476 10.2364L8.66021 14.8448Z" fill="#16B8A2"/>
<path fill-rule="evenodd" clip-rule="evenodd" d="M27.3903 5.24561L17.8353 14.8445L8.27906 5.24452C7.43445 4.39603 6.06549 4.39603 5.22115 5.24452C4.37681 6.09274 4.37681 7.46798 5.22115 8.31647L16.3063 19.4524C17.1506 20.3007 18.5196 20.3007 19.3642 19.4524L30.4483 8.31755C31.2926 7.46906 31.2926 6.09383 30.4483 5.24561C29.6036 4.39739 28.2346 4.39739 27.3903 5.24561Z" fill="#FFB41F"/>
<path fill-rule="evenodd" clip-rule="evenodd" d="M35.0352 12.9258L28.5382 19.4525C27.6939 20.3007 26.325 20.3007 25.4806 19.4525L9.80809 3.70804C8.96371 2.85982 8.96371 1.48459 9.80809 0.636369C10.6527 -0.212123 12.0216 -0.212123 12.8659 0.636369L27.0093 14.8446L31.9773 9.85382C32.8218 9.00561 34.1908 9.00561 35.0352 9.85382C35.8795 10.7024 35.8795 12.0776 35.0352 12.9258Z" fill="#F56358"/>
<path fill-rule="evenodd" clip-rule="evenodd" d="M25.8601 0.637508C25.0157 -0.210712 23.6468 -0.210712 22.8021 0.637508L13.2471 10.2365L16.305 13.3084L25.8601 3.70945C26.7045 2.86096 26.7045 1.48573 25.8601 0.637508Z" fill="#16B8A2"/>
</svg>