<svg xmlns="http://www.w3.org/2000/svg" viewBox="0 0 18 16" fill="#000000">
  <path d="M0 3.36c3.105.063 4.457-.93 4.52-3.36h4.014v3.212c0 .38-.254.57-.38.655L4.457 6.613c-.084.063-.55.443-1.183.443H0zm17.744 0v3.696H14.47c-.634 0-1.099-.38-1.183-.443L9.59 3.867c-.105-.085-.38-.275-.38-.655V0h4.013c.064 2.43 1.416 3.422 4.52 3.36"/>
  <path d="M0 11.429V7.732h3.274c.655 0 1.099.38 1.183.444l3.697 2.746c.105.084.38.253.38.655v3.21H4.52c-.063-2.429-1.415-3.422-4.52-3.358m17.744 0c-3.105-.064-4.457.93-4.52 3.358H9.21v-3.21c0-.402.275-.57.38-.655l3.697-2.746c.084-.064.549-.444 1.183-.444h3.274z"/>
</svg>