<svg xmlns="http://www.w3.org/2000/svg" viewBox="0 0 24 28" fill="none">
<path fill-rule="evenodd" clip-rule="evenodd" d="M20.6336 9.31097C20.6336 9.80679 20.5685 10.2586 20.448 10.6688C25.5512 13.6678 22.9243 23.425 22.1553 25.9104C22.1341 25.979 22.0162 25.9526 22.0184 25.8809C22.0434 25.0557 21.915 23.8983 21.3489 22.7842C21.3659 22.9307 21.3746 23.0797 21.3746 23.2308C21.3746 25.352 19.6557 27.0715 17.5353 27.0715C15.4149 27.0715 13.696 25.352 13.696 23.2308C13.696 22.8372 13.7551 22.4575 13.8651 22.1C13.8344 22.0919 13.8021 22.0837 13.7685 22.0754C13.5461 22.0208 13.3125 21.9778 13.1568 21.9778C13.0018 21.9778 12.7775 22.0198 12.566 22.0731C12.5271 22.0829 12.49 22.0927 12.4555 22.1022C12.5651 22.4592 12.624 22.8383 12.624 23.2312C12.624 25.3523 10.9051 27.0719 8.78472 27.0719C6.82415 27.0719 5.20681 25.6018 4.97413 23.7034C4.57854 25.2802 4.56924 26.9897 4.63748 28.9407C4.63962 29.0017 4.56111 29.0284 4.53063 28.9755C2.82232 26.0091 1.24842 19.8656 2.38651 15.3358C3.40492 11.2823 6.25787 9.32881 8.04941 8.65901C8.37557 5.47988 11.0607 3 14.3249 3C17.8091 3 20.6336 5.82552 20.6336 9.31097ZM7.14073 19.7594C7.63907 19.5228 8.19644 19.3904 8.78472 19.3904C10.1608 19.3904 11.3678 20.1147 12.0456 21.2029C12.1184 21.181 12.2173 21.1527 12.3299 21.1243C12.555 21.0676 12.8761 20.9997 13.1568 20.9997C13.4368 20.9997 13.7667 21.0682 13.9988 21.1252C14.1066 21.1517 14.2026 21.178 14.2764 21.1993C14.9546 20.1129 16.1606 19.3901 17.5353 19.3901C17.6851 19.3901 17.8329 19.3987 17.9782 19.4154C16.6567 17.8504 16.1414 15.6657 15.955 14.2919C11.5409 16.2028 8.812 17.9517 7.14073 19.7594ZM20.1899 23.2308C20.1899 24.698 19.001 25.8867 17.5353 25.8867C16.0696 25.8867 14.8807 24.698 14.8807 23.2308C14.8807 21.7636 16.0696 20.5748 17.5353 20.5748C19.001 20.5748 20.1899 21.7636 20.1899 23.2308ZM11.4393 23.2312C11.4393 24.6984 10.2504 25.8871 8.78472 25.8871C7.31904 25.8871 6.13014 24.6984 6.13014 23.2312C6.13014 21.7639 7.31904 20.5752 8.78472 20.5752C10.2504 20.5752 11.4393 21.7639 11.4393 23.2312Z" fill="#151417"/>
</svg>