<svg role="img" viewBox="0 0 24 24" xmlns="http://www.w3.org/2000/svg" fill="currentColor"><title>API</title><path d="M12 2C6.477 2 2 6.477 2 12s4.477 10 10 10 10-4.477 10-10S17.523 2 12 2zm0 18.5c-4.694 0-8.5-3.806-8.5-8.5S7.306 3.5 12 3.5s8.5 3.806 8.5 8.5-3.806 8.5-8.5 8.5zm0-13.75c-1.726 0-3.125 1.399-3.125 3.125h1.5c0-.897.728-1.625 1.625-1.625s1.625.728 1.625 1.625c0 .897-.728 1.625-1.625 1.625-.414 0-.75.336-.75.75v2.25h1.5v-1.586c1.46-.296 2.5-1.583 2.5-3.039 0-1.726-1.399-3.125-3.125-3.125zM11.25 17h1.5v-1.5h-1.5z"/></svg>
