<svg xmlns="http://www.w3.org/2000/svg" viewBox="-1 -0.5 26 25" fill="none">
  <path d="M7.95343 21.1394C4.89586 21.1304 2.25471 19.458 0.987296 16.2895C-0.280118 13.121 0.108924 9.16314 1.74363 5.61504C4.8012 5.62409 7.44235 7.29648 8.70976 10.465C9.97718 13.6335 9.58814 17.5913 7.95343 21.1394Z" fill="url(#a)"/>
  <path d="M7.95343 21.1394C4.89586 21.1304 2.25471 19.458 0.987296 16.2895C-0.280118 13.121 0.108924 9.16314 1.74363 5.61504C4.8012 5.62409 7.44235 7.29648 8.70976 10.465C9.97718 13.6335 9.58814 17.5913 7.95343 21.1394Z" fill="black" fill-opacity="0.5" style="mix-blend-mode:hard-light"/>
  <path d="M7.31038 21.2574C11.3543 20.2215 14.8836 17.3754 16.6285 13.2361C18.3735 9.09671 17.9448 4.58749 15.8598 0.976291C11.8159 2.01214 8.2866 4.85826 6.54167 8.99762C4.79674 13.137 5.2254 17.6462 7.31038 21.2574Z" fill="url(#b)"/>
  <path d="M7.23368 21.2069C9.78906 23.2373 13.2102 23.9506 16.5772 22.8141C19.9441 21.6775 22.5058 18.9445 23.7304 15.6382C21.175 13.6078 17.7538 12.8944 14.3869 14.031C11.0199 15.1676 8.45822 17.9006 7.23368 21.2069Z" fill="url(#c)"/>
  <path d="M7.23368 21.2069C9.78906 23.2373 13.2102 23.9506 16.5772 22.8141C19.9441 21.6775 22.5058 18.9445 23.7304 15.6382C21.175 13.6078 17.7538 12.8944 14.3869 14.031C11.0199 15.1676 8.45822 17.9006 7.23368 21.2069Z" fill="black" fill-opacity="0.2" style="mix-blend-mode:hard-light"/>
  <defs>
    <radialGradient id="a" cx="0" cy="0" r="1" gradientUnits="userSpaceOnUse" gradientTransform="translate(-3.00503 15.023) rotate(-10.029) scale(17.9572 17.784)">
      <stop stop-color="#00B0BB"/>
      <stop offset="1" stop-color="#00DB65"/>
    </radialGradient>
    <radialGradient id="b" cx="0" cy="0" r="1" gradientUnits="userSpaceOnUse" gradientTransform="translate(8.11404 20.8822) rotate(-75.7542) scale(21.6246 23.7772)">
      <stop stop-color="#00BBBB"/>
      <stop offset="0.712616" stop-color="#00DB65"/>
    </radialGradient>
    <radialGradient id="c" cx="0" cy="0" r="1" gradientUnits="userSpaceOnUse" gradientTransform="translate(7.84537 21.5181) rotate(-20.3525) scale(18.5603 17.32)">
      <stop stop-color="#00B0BB"/>
      <stop offset="1" stop-color="#00DB65"/>
    </radialGradient>
  </defs>
</svg>