<svg role="img" viewBox="0 0 24 24" xmlns="http://www.w3.org/2000/svg"><title>Microsoft SharePoint</title><path d="M12.422 0C9.678 0 7.45 2.228 7.45 4.972c0 .426.056.838.156 1.233A4.32 4.32 0 0 0 5.81 5.858c-2.383 0-4.314 1.932-4.314 4.314 0 1.75 1.044 3.26 2.556 3.953v.003c-.026.2-.04.405-.04.612C4.012 17.168 6.004 19 8.443 19H16.5c2.485 0 4.5-2.015 4.5-4.5a4.497 4.497 0 0 0-2.564-4.036A4.968 4.968 0 0 0 18.6 8.85a4.972 4.972 0 0 0-4.056-2.087 4.96 4.96 0 0 0-1.099.124A4.969 4.969 0 0 0 12.422 0zm0 1.4a3.572 3.572 0 0 1 3.572 3.572c0 .458-.088.895-.245 1.297a4.972 4.972 0 0 0-1.205-.148c-.777 0-1.511.178-2.167.495a3.572 3.572 0 0 1-.527-1.644 3.572 3.572 0 0 1 .572-3.572zM9.8 9.6a2.4 2.4 0 0 1 2.4 2.4v5.6H9.8a2.4 2.4 0 0 1-2.4-2.4v-.8a2.4 2.4 0 0 1 2.4-2.4zm4.8 0h1.6a2.4 2.4 0 0 1 2.4 2.4v.8a2.4 2.4 0 0 1-2.4 2.4H12.6v-5.6zm-4.8 8.8h7.6v.8a2.4 2.4 0 0 1-2.4 2.4H9.8a2.4 2.4 0 0 1 0-4.8zm0 1.6a.8.8 0 0 0 0 1.6h5.2v-.8a.8.8 0 0 0-.8-.8z" fill="#038387"/></svg>
