<svg xmlns="http://www.w3.org/2000/svg" viewBox="0 0 29 29" width="24" height="24"><path d="M14.4725 0C6.49193 0 0 6.49193 0 14.4725C0 22.4531 6.49193 28.945 14.4725 28.945C22.4531 28.945 28.945 22.4531 28.945 14.4725C28.945 6.49193 22.4531 0 14.4725 0ZM14.4725 27.155C14.4451 27.155 14.4178 27.155 14.3938 27.155C12.5732 22.0937 15.8756 16.981 21.1664 16.981C23.9486 16.981 24.9582 13.795 24.8007 12.2687C24.7836 12.1489 24.6912 12.0633 24.5783 12.0633L19.3628 12.0565C19.2739 12.0565 19.1883 12.0154 19.1301 11.947L18.5929 11.3139C18.3293 11.0059 17.9495 10.8177 17.5457 10.7971L16.5019 10.7458C16.3684 10.7389 16.2589 10.6465 16.2247 10.5199C15.7832 8.94907 14.9174 7.69654 14.2158 7.1045C14.1679 7.0669 14.0995 7.084 14.0721 7.1387C13.7025 7.87107 13.4151 8.59658 13.2679 9.44871C13.2576 9.51373 13.1721 9.51373 13.1379 9.44871C12.5184 8.24409 11.7176 7.10792 10.8929 6.28317C10.8518 6.2421 10.7834 6.24553 10.7492 6.29344C10.0373 7.2585 9.16125 8.93196 9.01067 12.0086C9.00383 12.1455 8.91143 12.2584 8.77796 12.2926C7.43646 12.6348 5.63295 13.6068 5.01011 13.9558C4.8698 14.0345 4.89376 14.0927 5.01353 14.1064C5.13331 14.1201 7.09766 14.3254 7.18321 14.3357C7.26877 14.3459 7.30299 14.4144 7.1969 14.4555C6.13944 14.849 3.97318 16.2247 3.30585 16.6559C3.17923 16.7381 3.26136 16.7894 3.32981 16.7963C3.40167 16.7997 5.69113 16.9058 5.79722 16.9092C5.90331 16.9126 5.95464 17.005 5.82117 17.0495C5.74931 17.0734 3.98345 17.751 2.39897 18.3602C2.00541 17.135 1.79324 15.8312 1.79324 14.476C1.78981 7.46725 7.46726 1.78981 14.4725 1.78981C21.4778 1.78981 27.1552 7.46725 27.1552 14.4725C27.1552 21.4778 21.4778 27.155 14.4725 27.155ZM15.2938 11.8067C17.2342 11.8067 18.0248 12.1181 18.0248 13.0216C17.573 13.4733 15.2938 13.1105 15.2938 11.8067Z" fill="#1E293B"/></svg>