<svg xmlns="http://www.w3.org/2000/svg" viewBox="0 0 24 24">
  <path fill-rule="evenodd" clip-rule="evenodd" d="M1.04641 2.63487C1.3485 2.21162 1.95271 2.2152 2.3204 2.5829L8.97812 9.24061C9.34582 9.60831 9.34939 10.2125 8.92614 10.5146C6.71969 12.0894 3.63494 11.8867 1.65463 9.90639C-0.32568 7.92608 -0.52842 4.84132 1.04641 2.63487ZM2.58305 18.0272C2.21536 18.3949 2.21178 18.9991 2.63503 19.3012C4.84148 20.876 7.92624 20.6733 9.90655 18.693C11.8869 16.7126 12.0896 13.6279 10.5148 11.4214C10.2127 10.9982 9.60847 11.0018 9.24077 11.3695L2.58305 18.0272ZM17.7647 2.32016C18.1324 1.95246 18.1359 1.34826 17.7127 1.04617C15.5062 -0.528664 12.4215 -0.325924 10.4412 1.65439C8.46086 3.6347 8.25812 6.71945 9.83295 8.9259C10.135 9.34915 10.7392 9.34557 11.1069 8.97788L17.7647 2.32016ZM18.0273 17.7644C18.395 18.1321 18.9992 18.1357 19.3013 17.7125C20.8761 15.506 20.6734 12.4213 18.6931 10.441C16.7128 8.46064 13.628 8.2579 11.4216 9.83273C10.9983 10.1348 11.0019 10.739 11.3696 11.1067L18.0273 17.7644Z" fill="#1170FF"/>
</svg>
