<svg xmlns="http://www.w3.org/2000/svg" viewBox="0 0 36 32" fill="none">
  <path d="M6.1858 5.74485C3.87456 8.36873 2.53055 11.8972 2.53055 15.9566C2.53055 24.466 8.42112 30.6436 16.7832 31.0425L17.6464 31.065C17.6464 31.065 17.6464 31.065 17.6492 31.065C17.652 31.065 17.6492 31.065 17.652 31.065H35.2394V30.6323L29.3038 26.9437C29.3038 26.9437 29.0058 26.851 28.9917 26.5055C28.9861 26.3678 29.0283 26.2723 29.1182 26.1684C31.4267 23.5445 32.7707 20.0188 32.7707 15.9622C32.7707 7.4529 26.8801 1.27528 18.518 0.876357L17.6464 0.853883H17.6548C17.6548 0.853883 17.652 0.853883 17.6492 0.853883C17.6464 0.853883 17.6464 0.853883 17.6436 0.853883H0V1.28651L6.00866 4.98354C6.00866 4.98354 6.25328 5.06501 6.30389 5.34874C6.34606 5.5763 6.1858 5.74766 6.1858 5.74766M7.01526 15.9594C7.01526 9.30422 11.3791 4.96949 17.6604 4.96949C23.9418 4.96949 28.3056 9.30422 28.3056 15.9594C28.3056 22.6146 23.9418 26.9494 17.6604 26.9494C11.3791 26.9494 7.01526 22.6146 7.01526 15.9594Z" fill="#0052FF"/>
</svg>
