<svg xmlns="http://www.w3.org/2000/svg" viewBox="-0.5 -0.5 25.5 19.5" width="24" height="24"><path d="M2.878 4.99c0-1.98-1.003-3.616-2.878-4.99h4.358c1.556 1.185 2.47 3.034 2.467 4.99.003 1.956-.911 3.805-2.467 4.99 1.415.59 2.22 2.03 2.22 4.091v3.927H2.632V14.07c0-1.963-.937-3.337-2.631-4.09C1.876 8.605 2.878 6.97 2.878 4.99z" fill="#502d3c"/><path d="M11.43 4.99c0-1.98-1.003-3.616-2.878-4.99h4.359c1.556 1.185 2.469 3.034 2.466 4.99.003 1.956-.91 3.805-2.466 4.99 1.414.59 2.22 2.03 2.22 4.091v3.927h-3.947V14.07c0-1.963-.938-3.337-2.632-4.09 1.875-1.375 2.878-3.01 2.878-4.99z" fill="#502d3c"/><path d="M19.984 4.99c0-1.98-1.003-3.616-2.878-4.99h4.358c1.556 1.185 2.47 3.034 2.467 4.99.003 1.956-.911 3.805-2.467 4.99 1.415.59 2.22 2.03 2.22 4.091v3.927h-3.947V14.07c0-1.963-.937-3.337-2.631-4.09 1.875-1.375 2.878-3.01 2.878-4.99z" fill="#502d3c"/></svg>