<svg xmlns="http://www.w3.org/2000/svg" viewBox="-4.5 0 265 265">
  <path d="M233.559 141.927l.172.013 17.891 1.87a4.488 4.488 0 013.366 3.205c.836 1.055 1.205 2.406 1.02 3.74-3.91 31.076-18.639 59.784-41.604 81.083C190.397 252.689 159.098 264.968 126.597 264.968c-15.785.025-31.436-2.881-46.156-8.569a4.49 4.49 0 01-2.764-2.532 4.484 4.484 0 01-.084-3.66l7.062-17.23a4.488 4.488 0 016.281-2.04c36.097 13.938 76.981 6.088 105.349-20.228 18.057-16.592 29.7-39.007 32.892-63.32.338-2.51 2.516-4.337 5.012-4.27l.171.008zM43.479 206.237l.253-.002.253.002c8.12.093 14.658 6.659 14.746 14.749l.001.253c0 .084-.001.169-.003.253-.14 8.284-6.97 14.885-15.254 14.745-8.284-.142-14.884-8.971-14.745-15.254.139-8.115 6.695-14.615 14.75-14.745zM4.93 147.082h146.316c2.689.023 4.861 2.176 4.93 4.844v18.316c.022 2.688-2.094 4.897-4.76 5.01H4.93c-2.69-.023-4.861-2.176-4.93-4.844v-18.316C.067 149.316 2.148 147.199 4.755 147.087l.175-.005zm164.631-66.337h146.193c2.623.023 4.795 2.076 4.97 4.674v18.316c.023 2.689-2.093 4.897-4.759 5.01H104.754c-2.672-.045-4.818-2.19-4.886-4.841v-18.147c-.023-2.671 2.066-4.872 4.715-5.008l.173-.004zM206.326 24.862l.252-.002.253.002c8.12.093 14.658 6.659 14.746 14.748l.001.253c0 .085-.001.17-.003.254-.14 8.284-6.97 14.884-15.254 14.744-8.284-.14-14.884-8.97-14.744-15.254.138-8.115 6.694-14.615 14.749-14.745zM169.561 7.311c1.267.457 2.294 1.407 2.847 2.635a5.258 5.258 0 010 3.867l-6.374 16.999c-.883 2.52-3.639 3.851-6.162 2.974-33.395-11.654-70.45-5.032-97.742 17.466-16.009 14.237-28.086 33.483-33.507 54.99a4.487 4.487 0 01-4.76 3.698l-1.104 0-17.509-4.207a4.488 4.488 0 01-3.102-4.296c-.709-1.158-.908-2.556-.552-3.867C9.463 72.04 25.021 47.445 46.919 29.366c34.82-28.666 82.1-37.032 124.643-22.055z" fill="#52BD94"/>
</svg>