<svg xmlns="http://www.w3.org/2000/svg" viewBox="-1 -1 42.8 42" width="24" height="24"><path d="M40.776 16.934v6.131c-2.938 0-5.32 2.336-5.32 5.218 0 1.44.595 2.745 1.557 3.689l-4.42 4.335c-.962-.944-2.292-1.527-3.76-1.527-2.938 0-5.32 2.337-5.32 5.22h-6.248c0-2.882-2.382-5.218-5.32-5.218-1.468 0-2.798.583-3.76 1.526l-4.42-4.335c.961-.944 1.557-2.248 1.557-3.688 0-2.882-2.384-5.219-5.322-5.219l.002-6.131c2.938 0 5.32-2.336 5.32-5.218 0-1.44-.595-2.745-1.557-3.689l4.42-4.335c.962.942 2.292 1.527 3.76 1.527 2.938 0 5.32-2.336 5.32-5.22h6.248c0 2.882 2.382 5.218 5.32 5.218 1.468 0 2.798-.583 3.76-1.526l4.42 4.335c-.961.944-1.557 2.248-1.557 3.688 0 2.882 2.382 5.219 5.32 5.219zM30.628 25.8v-11.6l-10.241-5.799-10.24 5.799v11.6l10.24 5.799z" fill="#003311"/></svg>