<svg xmlns="http://www.w3.org/2000/svg" viewBox="0 0 24 24" width="256" height="256"><path fill="#FFFC00" d="M12.206.793c.99 0 4.347.276 5.93 3.821.529 1.193.403 3.219.299 4.847l-.003.06c-.012.18-.022.345-.03.51.075.045.203.09.401.09.3-.016.659-.12 1.033-.301a.32.32 0 0 1 .114-.023.263.263 0 0 1 .163.06c.3.225.36.555.165.78a.603.603 0 0 1-.15.165c-.375.27-.81.48-1.29.585l-.135.03a.46.46 0 0 0-.345.435c-.015.18.06.3.135.405.015.015.03.03.045.06.24.36.54.78.84 1.125.12.135.21.27.285.405.555.78.6 1.635-.225 2.025a4.146 4.146 0 0 1-.39.165c-.36.135-.735.27-1.035.48a.6.6 0 0 0-.21.225c-.024.075-.039.165-.015.285.093.42-.03.81-.405.87h-.06a1.47 1.47 0 0 1-.36-.045c-.345-.075-.705-.15-1.11-.15-.09 0-.195 0-.3.015a5.58 5.58 0 0 0-.795.225c-.54.195-1.215.435-2.295.435-1.065 0-1.74-.24-2.28-.435a5.306 5.306 0 0 0-.81-.225 3.12 3.12 0 0 0-.3-.015c-.42 0-.78.075-1.11.15-.12.03-.24.045-.36.045h-.06c-.375-.06-.495-.45-.405-.87.024-.12.009-.21-.015-.285a.588.588 0 0 0-.21-.225c-.3-.21-.675-.345-1.035-.48a3.86 3.86 0 0 1-.39-.165c-.825-.39-.78-1.245-.225-2.025.075-.135.165-.27.285-.405.3-.345.6-.765.84-1.125.015-.03.03-.045.045-.06.075-.105.15-.225.135-.405a.46.46 0 0 0-.345-.435l-.135-.03a4.294 4.294 0 0 1-1.29-.585.648.648 0 0 1-.15-.165c-.195-.225-.135-.555.165-.78a.26.26 0 0 1 .163-.06.323.323 0 0 1 .114.023c.374.18.733.284 1.033.301.198 0 .326-.045.401-.09a27.14 27.14 0 0 1-.033-.57c-.104-1.628-.23-3.654.299-4.847C7.86 1.069 11.216.793 12.206.793"/></svg>
