<svg xmlns="http://www.w3.org/2000/svg" viewBox="0 0 42 50" fill="none">
  <path d="M34.17,11.57c-2.05-1.85-4.34-3.23-6.77-4.17l2.29-5.95C21.49-1.7,11.85.32,5.62,7.22,3.03,10.09,1.35,13.46.55,16.97c-1.71,7.47.58,15.62,6.67,21.11,2.05,1.85,4.36,3.24,6.8,4.18l-2.29,5.96c8.19,3.13,17.81,1.12,24.03-5.79,2.59-2.87,4.27-6.23,5.07-9.75,1.71-7.47-.58-15.62-6.67-21.11ZM29.56,36.81c-3.84,4.26-9.77,5.5-14.83,3.59-1.52-.58-2.96-1.44-4.24-2.6-5.54-4.99-5.98-13.53-.99-19.07,3.86-4.28,9.84-5.52,14.91-3.55,1.49.58,2.9,1.43,4.16,2.56,5.54,4.99,5.98,13.53.99,19.07Z" fill="#0E3C48"/>
</svg>
