<svg role="img" viewBox="0 0 20.32 24.92" xmlns="http://www.w3.org/2000/svg" fill="currentColor"><title>Stytch</title><path d="M16.103 4.602H4.217C1.887 4.602 0 6.491 0 8.818V20.702C0 23.032 1.887 24.921 4.217 24.921H16.103C18.431 24.921 20.32 23.032 20.32 20.702V8.818C20.32 6.491 18.431 4.602 16.103 4.602ZM17.728 19.487C17.293 20.084 16.754 20.594 16.139 20.989C15.639 21.299 15.07 21.463 14.49 21.463C13.778 21.512 13.075 21.266 12.534 20.779C12.309 20.548 12.132 20.269 12.014 19.964C11.898 19.656 11.845 19.328 11.857 18.997C11.893 18.197 11.975 17.403 12.101 16.613C11.719 17.954 11.052 19.189 10.153 20.222C9.804 20.615 9.383 20.925 8.914 21.14C8.448 21.353 7.943 21.463 7.43 21.463C7.071 21.486 6.712 21.432 6.374 21.299C6.035 21.166 5.73 20.961 5.474 20.697C5.012 20.143 4.776 19.423 4.812 18.69C4.822 18.108 4.889 17.531 5.012 16.967L5.971 12.363C5.971 12.274 6.035 12.04 6.115 11.656C6.194 11.243 6.233 10.823 6.23 10.4C6.243 10.195 6.191 9.987 6.084 9.813C6.038 9.751 5.976 9.703 5.909 9.669C5.84 9.639 5.763 9.623 5.689 9.626C5.292 9.659 4.915 9.818 4.61 10.085C4.112 10.479 3.676 10.954 3.32 11.492C3.271 11.579 3.2 11.653 3.115 11.705C3.033 11.758 2.938 11.792 2.838 11.8C2.764 11.797 2.692 11.776 2.628 11.738C2.561 11.7 2.507 11.646 2.464 11.582C2.356 11.443 2.297 11.271 2.3 11.092C2.325 10.679 2.477 10.285 2.73 9.964C3.782 8.46 5.004 7.708 6.417 7.708C6.681 7.696 6.948 7.742 7.196 7.844C7.445 7.947 7.668 8.103 7.855 8.301C8.243 8.795 8.435 9.426 8.389 10.062C8.391 10.567 8.355 11.069 8.281 11.566C8.209 12.025 8.086 12.656 7.912 13.445L7.309 16.403L7.237 16.921C7.186 17.17 7.143 17.403 7.114 17.621C7.086 17.839 7.071 18.056 7.071 18.274C7.055 18.574 7.153 18.869 7.345 19.095C7.448 19.2 7.571 19.282 7.707 19.336C7.84 19.389 7.984 19.412 8.13 19.402C8.494 19.374 8.848 19.266 9.168 19.089C9.491 18.913 9.778 18.669 10.006 18.372C10.793 17.393 11.391 16.26 11.763 15.039C12.38 13.127 12.793 11.151 12.993 9.144C13.021 8.744 13.129 8.354 13.311 8.001C13.409 7.88 13.537 7.788 13.678 7.732C13.819 7.675 13.973 7.655 14.124 7.678C14.272 7.665 14.424 7.691 14.562 7.75C14.701 7.808 14.824 7.898 14.924 8.016C15.119 8.354 15.201 8.752 15.152 9.144C15.147 9.531 15.113 9.915 15.052 10.295C14.988 10.761 14.888 11.423 14.757 12.274C14.475 13.912 14.255 15.416 14.096 16.785C14.029 17.244 13.99 17.705 13.98 18.169C13.957 18.531 14.06 18.89 14.267 19.177C14.362 19.289 14.48 19.379 14.611 19.441C14.744 19.5 14.888 19.528 15.031 19.523C15.388 19.515 15.736 19.392 16.024 19.169C16.452 18.825 16.839 18.428 17.175 17.99C17.223 17.921 17.287 17.864 17.359 17.826C17.431 17.787 17.511 17.764 17.593 17.764C17.657 17.764 17.718 17.782 17.775 17.815C17.828 17.851 17.872 17.9 17.903 17.959C17.987 18.123 18.028 18.308 18.018 18.492C18.036 18.848 17.936 19.2 17.728 19.487Z"/></svg>
