<svg xmlns="http://www.w3.org/2000/svg" viewBox="0 0 64 64">
  <rect width="64" height="64" rx="14" fill="#4339f2"/>
  <g transform="translate(13.5, 13.5) scale(1.03)">
    <path clip-rule="evenodd" fill-rule="evenodd" fill="white" d="m17.981 36c-9.93 0-17.981-8.059-17.981-18s8.051-18 17.981-18c9.931 0 17.982 8.059 17.982 18s-8.051 18-17.982 18zm-1.5-20.855c-.129-.519-.298-1.027-.505-1.519-.396-.941-1.735-.871-2.079.091-1.881 5.267-7.672 8.01-12.934 6.127-1.014-.364-1.965-.887-2.815-1.551-.403-.315-.986-.244-1.301.16-.157.201-.225.457-.187.71.101.626.259 1.241.472 1.838 1.658 4.631 6.507 7.424 11.339 6.533 5.499-1.006 9.142-6.283 8.138-11.787-.036-.202-.079-.403-.128-.602zm4.318 2.19c0 7.857-6.363 14.226-14.211 14.226-7.849 0-14.211-6.369-14.211-14.226 0-7.856 6.362-14.226 14.211-14.226 7.848 0 14.211 6.37 14.211 14.226z"/>
  </g>
</svg>
