<svg role="img" viewBox="0 0 120 29" xmlns="http://www.w3.org/2000/svg" fill="currentColor"><title>Userpilot</title><path d="M32.2439 11.3236C32.1619 11.3877 32.0593 11.4185 31.9542 11.4082C31.8517 11.398 31.7543 11.3467 31.6902 11.2672C31.3928 10.8981 31.0287 10.5904 30.6134 10.3597C30.0314 10.0444 29.3802 9.88285 28.7162 9.89054C28.4034 9.89054 28.0932 9.9213 27.7881 9.98796C27.4933 10.0444 27.2138 10.1546 26.9575 10.311C26.719 10.4392 26.5165 10.6289 26.3755 10.857C26.2165 11.1006 26.1371 11.3877 26.1473 11.6774C26.1396 11.944 26.2089 12.2055 26.3499 12.4337C26.4909 12.6618 26.696 12.8439 26.937 12.9567C27.6881 13.3079 28.4803 13.5643 29.2982 13.7181C29.9212 13.8668 30.5339 14.0488 31.1364 14.2641C31.662 14.459 32.1568 14.7256 32.608 15.0563C33.0131 15.3665 33.3489 15.7536 33.595 16.1997C33.8489 16.6791 33.9822 17.2123 33.9796 17.7533C34.0001 18.4634 33.8412 19.171 33.5156 19.8042C33.2105 20.3451 32.79 20.8117 32.2798 21.1706C31.744 21.5295 31.1441 21.7884 30.5108 21.932C29.8443 22.0833 29.1597 22.1602 28.4752 22.1576C27.4189 22.1576 26.3704 21.9525 25.3936 21.5526C24.5219 21.2193 23.7425 20.6912 23.1118 20.0093C23.04 19.9375 22.999 19.8401 22.999 19.7401C22.999 19.6401 23.04 19.5427 23.1118 19.4709L24.4757 18.3275C24.5475 18.2557 24.645 18.2173 24.7475 18.2173C24.8501 18.2173 24.9475 18.2583 25.0193 18.3275C25.3808 18.7531 25.8192 19.1094 26.314 19.3735C26.9626 19.7426 27.6984 19.9324 28.447 19.9195C28.7777 19.9195 29.111 19.8888 29.4341 19.8221C29.7443 19.7606 30.0417 19.6478 30.3134 19.4888C30.5672 19.3402 30.78 19.1325 30.9364 18.8838C31.1133 18.589 31.1954 18.248 31.1723 17.9071C31.162 17.6328 31.0749 17.3661 30.921 17.138C30.7672 16.9098 30.5544 16.7252 30.3032 16.6073C29.4418 16.2176 28.5367 15.9305 27.6061 15.7485C27.1421 15.6306 26.6678 15.4947 26.1935 15.328C25.7294 15.1691 25.2936 14.9409 24.8988 14.6538C24.4937 14.3692 24.1553 13.9975 23.9117 13.5694C23.6528 13.0746 23.5272 12.5234 23.5451 11.9671C23.5272 11.3108 23.6835 10.6596 23.9989 10.0828C24.2963 9.56496 24.7116 9.12401 25.2141 8.7933C25.7192 8.44977 26.2806 8.19853 26.8729 8.04984C28.4829 7.63453 30.1852 7.74989 31.7235 8.38312C32.467 8.6805 33.1207 9.15734 33.6309 9.77005C33.6976 9.83671 33.736 9.929 33.736 10.0239C33.736 10.1187 33.6976 10.211 33.6309 10.2777L32.2388 11.3236H32.2439Z"/><path d="M16.103 4.602H4.217C1.887 4.602 0 6.491 0 8.818V20.702C0 23.032 1.887 24.921 4.217 24.921H16.103C18.431 24.921 20.32 23.032 20.32 20.702V8.818C20.32 6.491 18.431 4.602 16.103 4.602ZM17.728 19.487C17.293 20.084 16.754 20.594 16.139 20.989C15.639 21.299 15.07 21.463 14.49 21.463C13.778 21.512 13.075 21.266 12.534 20.779C12.309 20.548 12.132 20.269 12.014 19.964C11.898 19.656 11.845 19.328 11.857 18.997C11.893 18.197 11.975 17.403 12.101 16.613C11.719 17.954 11.052 19.189 10.153 20.222C9.804 20.615 9.383 20.925 8.914 21.14C8.448 21.353 7.943 21.463 7.43 21.463C7.071 21.486 6.712 21.432 6.374 21.299C6.035 21.166 5.73 20.961 5.474 20.697C5.012 20.143 4.776 19.423 4.812 18.69C4.822 18.108 4.889 17.531 5.012 16.967L5.971 12.363C5.971 12.274 6.035 12.04 6.115 11.656C6.194 11.243 6.233 10.823 6.23 10.4C6.243 10.195 6.191 9.987 6.084 9.813C6.038 9.751 5.976 9.703 5.909 9.669C5.84 9.639 5.763 9.623 5.689 9.626C5.292 9.659 4.915 9.818 4.61 10.085C4.112 10.479 3.676 10.954 3.32 11.492C3.271 11.579 3.2 11.653 3.115 11.705C3.033 11.758 2.938 11.792 2.838 11.8C2.764 11.797 2.692 11.776 2.628 11.738C2.561 11.7 2.507 11.646 2.464 11.582C2.356 11.443 2.297 11.271 2.3 11.092C2.325 10.679 2.477 10.285 2.73 9.964C3.782 8.46 5.004 7.708 6.417 7.708C6.681 7.696 6.948 7.742 7.196 7.844C7.445 7.947 7.668 8.103 7.855 8.301C8.243 8.795 8.435 9.426 8.389 10.062C8.391 10.567 8.355 11.069 8.281 11.566C8.209 12.025 8.086 12.656 7.912 13.445L7.309 16.403L7.237 16.921C7.186 17.17 7.143 17.403 7.114 17.621C7.086 17.839 7.071 18.056 7.071 18.274C7.055 18.574 7.153 18.869 7.345 19.095C7.448 19.2 7.571 19.282 7.707 19.336C7.84 19.389 7.984 19.412 8.13 19.402C8.494 19.374 8.848 19.266 9.168 19.089C9.491 18.913 9.778 18.669 10.006 18.372C10.793 17.393 11.391 16.26 11.763 15.039C12.38 13.127 12.793 11.151 12.993 9.144C13.021 8.744 13.129 8.354 13.311 8.001C13.409 7.88 13.537 7.788 13.678 7.732C13.819 7.675 13.973 7.655 14.124 7.678C14.272 7.665 14.424 7.691 14.562 7.75C14.701 7.808 14.824 7.898 14.924 8.016C15.119 8.354 15.201 8.752 15.152 9.144C15.147 9.531 15.113 9.915 15.052 10.295C14.988 10.761 14.888 11.423 14.757 12.274C14.475 13.912 14.255 15.416 14.096 16.785C14.029 17.244 13.99 17.705 13.98 18.169C13.957 18.531 14.06 18.89 14.267 19.177C14.362 19.289 14.48 19.379 14.611 19.441C14.744 19.5 14.888 19.528 15.031 19.523C15.388 19.515 15.736 19.392 16.024 19.169C16.452 18.825 16.839 18.428 17.175 17.99C17.223 17.921 17.287 17.864 17.359 17.826C17.431 17.787 17.511 17.764 17.593 17.764C17.657 17.764 17.718 17.782 17.775 17.815C17.828 17.851 17.872 17.9 17.903 17.959C17.987 18.123 18.028 18.308 18.018 18.492C18.036 18.848 17.936 19.2 17.728 19.487Z"/></svg>