<svg role="img" viewBox="0 0 112 98" xmlns="http://www.w3.org/2000/svg" fill="currentColor"><title>WorkOS</title><path d="M65.583607,0 C63.4354197,1.51944973 61.6194675,3.45816024 60.244224,5.69740232 L59.9915568,6.12075308 L55.2210297,14.3766526 L35.3621345,48.8033468 L54.1717577,81.3145097 L49.4052975,89.5744762 C45.5814683,96.2199796 37.5858863,99.2255683 30.3313228,96.7445012 C26.6318935,95.5100477 23.6317259,92.8010642 21.606344,89.4698394 L21.4003103,89.1230452 L1.65122264,54.9240999 C0.561281224,53.0817736 0,50.9425602 0,48.8033468 C-0.00375985864,46.7881474 0.497006263,44.8062672 1.45379827,43.0375159 L1.65122264,42.6866607 L21.9615488,7.50758152 C24.5674884,2.95613896 29.3685407,0.124979774 34.6018637,0.00403686214 L34.951373,0 L65.583607,0 Z M71.8873726,0.862192461 C79.0297365,-1.54413325 86.8683753,1.32413365 90.7808436,7.7293873 L90.9613473,8.0322175 L110.97072,42.6825937 C112.060661,44.5208531 112.621899,46.6641335 112.621899,48.8033468 C112.621899,50.8088594 112.128623,52.8143719 111.16888,54.571906 L110.97072,54.920033 L90.6603934,90.0991121 C88.0544538,94.6505547 83.2534015,97.4817139 78.0200785,97.6026568 L77.6705692,97.6066937 L47.0383352,97.6066937 C49.150605,96.0930274 50.9661944,94.1825956 52.357763,91.9390684 L52.6303853,91.4859406 L57.4009125,83.2259741 L77.2598077,48.8033468 L58.4501845,16.2515145 L62.9563601,8.48364846 C64.981699,4.99014221 68.0644438,2.13921337 71.8873726,0.862192461 Z"/></svg>
